%TF.GenerationSoftware,KiCad,Pcbnew,8.0.2*%
%TF.CreationDate,2024-05-09T17:00:38-05:00*%
%TF.ProjectId,atmega328-proto,61746d65-6761-4333-9238-2d70726f746f,A*%
%TF.SameCoordinates,Original*%
%TF.FileFunction,Copper,L2,Bot*%
%TF.FilePolarity,Positive*%
%FSLAX46Y46*%
G04 Gerber Fmt 4.6, Leading zero omitted, Abs format (unit mm)*
G04 Created by KiCad (PCBNEW 8.0.2) date 2024-05-09 17:00:38*
%MOMM*%
%LPD*%
G01*
G04 APERTURE LIST*
%TA.AperFunction,ComponentPad*%
%ADD10R,1.600000X1.600000*%
%TD*%
%TA.AperFunction,ComponentPad*%
%ADD11O,1.600000X1.600000*%
%TD*%
%TA.AperFunction,ComponentPad*%
%ADD12R,1.700000X1.700000*%
%TD*%
%TA.AperFunction,ComponentPad*%
%ADD13O,1.700000X1.700000*%
%TD*%
%TA.AperFunction,ComponentPad*%
%ADD14C,1.500000*%
%TD*%
%TA.AperFunction,ViaPad*%
%ADD15C,0.600000*%
%TD*%
%TA.AperFunction,Conductor*%
%ADD16C,0.889000*%
%TD*%
%TA.AperFunction,Conductor*%
%ADD17C,0.381000*%
%TD*%
%TA.AperFunction,Profile*%
%ADD18C,0.050000*%
%TD*%
G04 APERTURE END LIST*
D10*
%TO.P,U1,1,~{RESET}/PC6*%
%TO.N,RESET*%
X104140000Y-63500000D03*
D11*
%TO.P,U1,2,PD0*%
%TO.N,2*%
X104140000Y-66040000D03*
%TO.P,U1,3,PD1*%
%TO.N,3*%
X104140000Y-68580000D03*
%TO.P,U1,4,PD2*%
%TO.N,4*%
X104140000Y-71120000D03*
%TO.P,U1,5,PD3*%
%TO.N,5*%
X104140000Y-73660000D03*
%TO.P,U1,6,PD4*%
%TO.N,6*%
X104140000Y-76200000D03*
%TO.P,U1,7,VCC*%
%TO.N,VCC*%
X104140000Y-78740000D03*
%TO.P,U1,8,GND*%
%TO.N,GND*%
X104140000Y-81280000D03*
%TO.P,U1,9,XTAL1/PB6*%
%TO.N,9*%
X104140000Y-83820000D03*
%TO.P,U1,10,XTAL2/PB7*%
%TO.N,10*%
X104140000Y-86360000D03*
%TO.P,U1,11,PD5*%
%TO.N,11*%
X104140000Y-88900000D03*
%TO.P,U1,12,PD6*%
%TO.N,12*%
X104140000Y-91440000D03*
%TO.P,U1,13,PD7*%
%TO.N,13*%
X104140000Y-93980000D03*
%TO.P,U1,14,PB0*%
%TO.N,14*%
X104140000Y-96520000D03*
%TO.P,U1,15,PB1*%
%TO.N,15*%
X111760000Y-96520000D03*
%TO.P,U1,16,PB2*%
%TO.N,16*%
X111760000Y-93980000D03*
%TO.P,U1,17,PB3*%
%TO.N,MOSI*%
X111760000Y-91440000D03*
%TO.P,U1,18,PB4*%
%TO.N,MISO*%
X111760000Y-88900000D03*
%TO.P,U1,19,PB5*%
%TO.N,SCK*%
X111760000Y-86360000D03*
%TO.P,U1,20,AVCC*%
%TO.N,VCC*%
X111760000Y-83820000D03*
%TO.P,U1,21,AREF*%
%TO.N,21*%
X111760000Y-81280000D03*
%TO.P,U1,22,GND*%
%TO.N,GND*%
X111760000Y-78740000D03*
%TO.P,U1,23,PC0*%
%TO.N,23*%
X111760000Y-76200000D03*
%TO.P,U1,24,PC1*%
%TO.N,24*%
X111760000Y-73660000D03*
%TO.P,U1,25,PC2*%
%TO.N,25*%
X111760000Y-71120000D03*
%TO.P,U1,26,PC3*%
%TO.N,26*%
X111760000Y-68580000D03*
%TO.P,U1,27,PC4*%
%TO.N,27*%
X111760000Y-66040000D03*
%TO.P,U1,28,PC5*%
%TO.N,28*%
X111760000Y-63500000D03*
%TD*%
D12*
%TO.P,J1,1,Pin_1*%
%TO.N,RESET*%
X99060000Y-63500000D03*
D13*
%TO.P,J1,2,Pin_2*%
%TO.N,2*%
X99060000Y-66040000D03*
%TO.P,J1,3,Pin_3*%
%TO.N,3*%
X99060000Y-68580000D03*
%TO.P,J1,4,Pin_4*%
%TO.N,4*%
X99060000Y-71120000D03*
%TO.P,J1,5,Pin_5*%
%TO.N,5*%
X99060000Y-73660000D03*
%TO.P,J1,6,Pin_6*%
%TO.N,6*%
X99060000Y-76200000D03*
%TO.P,J1,7,Pin_7*%
%TO.N,VCC*%
X99060000Y-78740000D03*
%TO.P,J1,8,Pin_8*%
%TO.N,GND*%
X99060000Y-81280000D03*
%TO.P,J1,9,Pin_9*%
%TO.N,9*%
X99060000Y-83820000D03*
%TO.P,J1,10,Pin_10*%
%TO.N,10*%
X99060000Y-86360000D03*
%TO.P,J1,11,Pin_11*%
%TO.N,11*%
X99060000Y-88900000D03*
%TO.P,J1,12,Pin_12*%
%TO.N,12*%
X99060000Y-91440000D03*
%TO.P,J1,13,Pin_13*%
%TO.N,13*%
X99060000Y-93980000D03*
%TO.P,J1,14,Pin_14*%
%TO.N,14*%
X99060000Y-96520000D03*
%TD*%
D12*
%TO.P,J4,1,MISO*%
%TO.N,MISO*%
X105410000Y-55880000D03*
D13*
%TO.P,J4,2,VCC*%
%TO.N,VCC*%
X105410000Y-53340000D03*
%TO.P,J4,3,SCK*%
%TO.N,SCK*%
X107950000Y-55880000D03*
%TO.P,J4,4,MOSI*%
%TO.N,MOSI*%
X107950000Y-53340000D03*
%TO.P,J4,5,~{RST}*%
%TO.N,RESET*%
X110490000Y-55880000D03*
%TO.P,J4,6,GND*%
%TO.N,GND*%
X110490000Y-53340000D03*
%TD*%
D12*
%TO.P,J2,1,Pin_1*%
%TO.N,15*%
X116840000Y-96520000D03*
D13*
%TO.P,J2,2,Pin_2*%
%TO.N,16*%
X116840000Y-93980000D03*
%TO.P,J2,3,Pin_3*%
%TO.N,MOSI*%
X116840000Y-91440000D03*
%TO.P,J2,4,Pin_4*%
%TO.N,MISO*%
X116840000Y-88900000D03*
%TO.P,J2,5,Pin_5*%
%TO.N,SCK*%
X116840000Y-86360000D03*
%TO.P,J2,6,Pin_6*%
%TO.N,VCC*%
X116840000Y-83820000D03*
%TO.P,J2,7,Pin_7*%
%TO.N,21*%
X116840000Y-81280000D03*
%TO.P,J2,8,Pin_8*%
%TO.N,GND*%
X116840000Y-78740000D03*
%TO.P,J2,9,Pin_9*%
%TO.N,23*%
X116840000Y-76200000D03*
%TO.P,J2,10,Pin_10*%
%TO.N,24*%
X116840000Y-73660000D03*
%TO.P,J2,11,Pin_11*%
%TO.N,25*%
X116840000Y-71120000D03*
%TO.P,J2,12,Pin_12*%
%TO.N,26*%
X116840000Y-68580000D03*
%TO.P,J2,13,Pin_13*%
%TO.N,27*%
X116840000Y-66040000D03*
%TO.P,J2,14,Pin_14*%
%TO.N,28*%
X116840000Y-63500000D03*
%TD*%
D14*
%TO.P,Y1,1,1*%
%TO.N,10*%
X105500000Y-105410000D03*
%TO.P,Y1,2,2*%
%TO.N,9*%
X110380000Y-105410000D03*
%TD*%
D15*
%TO.N,VCC*%
X103505000Y-57785000D03*
X108585000Y-83820000D03*
X108585000Y-78740000D03*
%TO.N,MISO*%
X106045000Y-88900000D03*
X106045000Y-62230000D03*
%TO.N,RESET*%
X107950000Y-59690000D03*
X107315000Y-63500000D03*
%TO.N,MOSI*%
X109855000Y-91440000D03*
X109855000Y-62865000D03*
%TO.N,SCK*%
X106680000Y-59690000D03*
X106680000Y-86360000D03*
%TO.N,10*%
X100965000Y-86360000D03*
%TO.N,9*%
X102235000Y-83820000D03*
%TD*%
D16*
%TO.N,GND*%
X111760000Y-78740000D02*
X116840000Y-78740000D01*
X104140000Y-81280000D02*
X99060000Y-81280000D01*
%TO.N,VCC*%
X111760000Y-83820000D02*
X116840000Y-83820000D01*
X105410000Y-53340000D02*
X104140000Y-53340000D01*
X103505000Y-53975000D02*
X103505000Y-57785000D01*
X104140000Y-53340000D02*
X103505000Y-53975000D01*
X104140000Y-78740000D02*
X99060000Y-78740000D01*
X104140000Y-78740000D02*
X108585000Y-78740000D01*
X108585000Y-83820000D02*
X111760000Y-83820000D01*
D17*
%TO.N,MISO*%
X105410000Y-55880000D02*
X105410000Y-61595000D01*
X105410000Y-61595000D02*
X106045000Y-62230000D01*
D16*
X111760000Y-88900000D02*
X116840000Y-88900000D01*
D17*
X106045000Y-88900000D02*
X111760000Y-88900000D01*
%TO.N,RESET*%
X110490000Y-57150000D02*
X110490000Y-58420000D01*
X110490000Y-58420000D02*
X109220000Y-58420000D01*
X107315000Y-63500000D02*
X104140000Y-63500000D01*
X110490000Y-55880000D02*
X110490000Y-57150000D01*
D16*
X104140000Y-63500000D02*
X99060000Y-63500000D01*
D17*
X109220000Y-58420000D02*
X107950000Y-59690000D01*
%TO.N,MOSI*%
X108585000Y-51490500D02*
X111180500Y-51490500D01*
X112395000Y-60325000D02*
X111125000Y-61595000D01*
D16*
X111760000Y-91440000D02*
X116840000Y-91440000D01*
D17*
X109855000Y-91440000D02*
X111760000Y-91440000D01*
X107950000Y-52125500D02*
X108585000Y-51490500D01*
X112395000Y-52705000D02*
X112395000Y-60325000D01*
X107950000Y-53340000D02*
X107950000Y-52125500D01*
X111180500Y-51490500D02*
X112395000Y-52705000D01*
X111125000Y-61595000D02*
X109855000Y-62865000D01*
D16*
%TO.N,SCK*%
X111760000Y-86360000D02*
X116840000Y-86360000D01*
D17*
X107950000Y-58420000D02*
X106680000Y-59690000D01*
X107950000Y-55880000D02*
X107950000Y-58420000D01*
X106680000Y-86360000D02*
X111760000Y-86360000D01*
D16*
%TO.N,10*%
X104140000Y-86360000D02*
X99060000Y-86360000D01*
%TO.N,9*%
X104140000Y-83820000D02*
X99060000Y-83820000D01*
%TO.N,3*%
X104140000Y-68580000D02*
X99060000Y-68580000D01*
%TO.N,2*%
X104140000Y-66040000D02*
X99060000Y-66040000D01*
%TO.N,11*%
X104140000Y-88900000D02*
X99060000Y-88900000D01*
%TO.N,5*%
X104140000Y-73660000D02*
X99060000Y-73660000D01*
%TO.N,12*%
X104140000Y-91440000D02*
X99060000Y-91440000D01*
%TO.N,6*%
X104140000Y-76200000D02*
X99060000Y-76200000D01*
%TO.N,13*%
X104140000Y-93980000D02*
X99060000Y-93980000D01*
%TO.N,14*%
X104140000Y-96520000D02*
X99060000Y-96520000D01*
%TO.N,4*%
X104140000Y-71120000D02*
X99060000Y-71120000D01*
%TO.N,23*%
X111760000Y-76200000D02*
X116840000Y-76200000D01*
%TO.N,15*%
X111760000Y-96520000D02*
X116840000Y-96520000D01*
%TO.N,27*%
X111760000Y-66040000D02*
X116840000Y-66040000D01*
%TO.N,28*%
X111760000Y-63500000D02*
X116840000Y-63500000D01*
%TO.N,24*%
X111760000Y-73660000D02*
X116840000Y-73660000D01*
%TO.N,26*%
X111760000Y-68580000D02*
X116840000Y-68580000D01*
%TO.N,21*%
X111760000Y-81280000D02*
X116840000Y-81280000D01*
%TO.N,25*%
X111760000Y-71120000D02*
X116840000Y-71120000D01*
%TO.N,16*%
X111760000Y-93980000D02*
X116840000Y-93980000D01*
%TD*%
%TA.AperFunction,Conductor*%
%TO.N,GND*%
G36*
X107565455Y-51320185D02*
G01*
X107611210Y-51372989D01*
X107621154Y-51442147D01*
X107592129Y-51505703D01*
X107586097Y-51512181D01*
X107413269Y-51685007D01*
X107413266Y-51685010D01*
X107388580Y-51721955D01*
X107388581Y-51721956D01*
X107337641Y-51798192D01*
X107285556Y-51923938D01*
X107285553Y-51923948D01*
X107259000Y-52057439D01*
X107259000Y-52110636D01*
X107239315Y-52177675D01*
X107206124Y-52212211D01*
X107078599Y-52301505D01*
X107078597Y-52301506D01*
X106911505Y-52468597D01*
X106781575Y-52654158D01*
X106726998Y-52697783D01*
X106657500Y-52704977D01*
X106595145Y-52673454D01*
X106578425Y-52654158D01*
X106448494Y-52468597D01*
X106281402Y-52301506D01*
X106281395Y-52301501D01*
X106087834Y-52165967D01*
X106087830Y-52165965D01*
X106087828Y-52165964D01*
X105873663Y-52066097D01*
X105873659Y-52066096D01*
X105873655Y-52066094D01*
X105645413Y-52004938D01*
X105645403Y-52004936D01*
X105410001Y-51984341D01*
X105409999Y-51984341D01*
X105174596Y-52004936D01*
X105174586Y-52004938D01*
X104946344Y-52066094D01*
X104946335Y-52066098D01*
X104732171Y-52165964D01*
X104732169Y-52165965D01*
X104538600Y-52301503D01*
X104519854Y-52320250D01*
X104481421Y-52358682D01*
X104420101Y-52392166D01*
X104393742Y-52395000D01*
X104046923Y-52395000D01*
X103864361Y-52431314D01*
X103864353Y-52431316D01*
X103692377Y-52502550D01*
X103692368Y-52502555D01*
X103537598Y-52605970D01*
X103537594Y-52605973D01*
X102770975Y-53372591D01*
X102770972Y-53372594D01*
X102747277Y-53408058D01*
X102667555Y-53527368D01*
X102667550Y-53527377D01*
X102596316Y-53699353D01*
X102596314Y-53699361D01*
X102560000Y-53881921D01*
X102560000Y-57878078D01*
X102596314Y-58060638D01*
X102596316Y-58060646D01*
X102667550Y-58232622D01*
X102667555Y-58232631D01*
X102770970Y-58387401D01*
X102770973Y-58387405D01*
X102902594Y-58519026D01*
X102902598Y-58519029D01*
X103057368Y-58622444D01*
X103057374Y-58622447D01*
X103057375Y-58622448D01*
X103229354Y-58693684D01*
X103411921Y-58729999D01*
X103411924Y-58730000D01*
X103411926Y-58730000D01*
X103598076Y-58730000D01*
X103598077Y-58729999D01*
X103780646Y-58693684D01*
X103952625Y-58622448D01*
X104107402Y-58519029D01*
X104239029Y-58387402D01*
X104342448Y-58232625D01*
X104413684Y-58060646D01*
X104450000Y-57878074D01*
X104450000Y-57354499D01*
X104469685Y-57287460D01*
X104522489Y-57241705D01*
X104573996Y-57230499D01*
X104595002Y-57230499D01*
X104662039Y-57250184D01*
X104707794Y-57302988D01*
X104719000Y-57354499D01*
X104719000Y-61526943D01*
X104719000Y-61663057D01*
X104719000Y-61663059D01*
X104718999Y-61663059D01*
X104745553Y-61796551D01*
X104745556Y-61796561D01*
X104780315Y-61880476D01*
X104797644Y-61922311D01*
X104840064Y-61985798D01*
X104853970Y-62006610D01*
X104874847Y-62073288D01*
X104856362Y-62140668D01*
X104804383Y-62187357D01*
X104750867Y-62199500D01*
X103292129Y-62199500D01*
X103292123Y-62199501D01*
X103232516Y-62205908D01*
X103097671Y-62256202D01*
X103097664Y-62256206D01*
X102982455Y-62342452D01*
X102982452Y-62342455D01*
X102896206Y-62457664D01*
X102896200Y-62457675D01*
X102889987Y-62474334D01*
X102848116Y-62530268D01*
X102782651Y-62554684D01*
X102773806Y-62555000D01*
X100494842Y-62555000D01*
X100427803Y-62535315D01*
X100382048Y-62482511D01*
X100378660Y-62474332D01*
X100353798Y-62407673D01*
X100353793Y-62407664D01*
X100267547Y-62292455D01*
X100267544Y-62292452D01*
X100152335Y-62206206D01*
X100152328Y-62206202D01*
X100017482Y-62155908D01*
X100017483Y-62155908D01*
X99957883Y-62149501D01*
X99957881Y-62149500D01*
X99957873Y-62149500D01*
X99957864Y-62149500D01*
X98162129Y-62149500D01*
X98162123Y-62149501D01*
X98102516Y-62155908D01*
X97967671Y-62206202D01*
X97967664Y-62206206D01*
X97852455Y-62292452D01*
X97852452Y-62292455D01*
X97766206Y-62407664D01*
X97766202Y-62407671D01*
X97715908Y-62542517D01*
X97709501Y-62602116D01*
X97709500Y-62602135D01*
X97709500Y-64397870D01*
X97709501Y-64397876D01*
X97715908Y-64457483D01*
X97766202Y-64592328D01*
X97766206Y-64592335D01*
X97852452Y-64707544D01*
X97852455Y-64707547D01*
X97967664Y-64793793D01*
X97967671Y-64793797D01*
X98099081Y-64842810D01*
X98155015Y-64884681D01*
X98179432Y-64950145D01*
X98164580Y-65018418D01*
X98143430Y-65046673D01*
X98021503Y-65168600D01*
X97885965Y-65362169D01*
X97885964Y-65362171D01*
X97786098Y-65576335D01*
X97786094Y-65576344D01*
X97724938Y-65804586D01*
X97724936Y-65804596D01*
X97704341Y-66039999D01*
X97704341Y-66040000D01*
X97724936Y-66275403D01*
X97724938Y-66275413D01*
X97786094Y-66503655D01*
X97786096Y-66503659D01*
X97786097Y-66503663D01*
X97874262Y-66692732D01*
X97885965Y-66717830D01*
X97885967Y-66717834D01*
X98021501Y-66911395D01*
X98021506Y-66911402D01*
X98188597Y-67078493D01*
X98188603Y-67078498D01*
X98374158Y-67208425D01*
X98417783Y-67263002D01*
X98424977Y-67332500D01*
X98393454Y-67394855D01*
X98374158Y-67411575D01*
X98188597Y-67541505D01*
X98021505Y-67708597D01*
X97885965Y-67902169D01*
X97885964Y-67902171D01*
X97786098Y-68116335D01*
X97786094Y-68116344D01*
X97724938Y-68344586D01*
X97724936Y-68344596D01*
X97704341Y-68579999D01*
X97704341Y-68580000D01*
X97724936Y-68815403D01*
X97724938Y-68815413D01*
X97786094Y-69043655D01*
X97786096Y-69043659D01*
X97786097Y-69043663D01*
X97874262Y-69232732D01*
X97885965Y-69257830D01*
X97885967Y-69257834D01*
X98021501Y-69451395D01*
X98021506Y-69451402D01*
X98188597Y-69618493D01*
X98188603Y-69618498D01*
X98374158Y-69748425D01*
X98417783Y-69803002D01*
X98424977Y-69872500D01*
X98393454Y-69934855D01*
X98374158Y-69951575D01*
X98188597Y-70081505D01*
X98021505Y-70248597D01*
X97885965Y-70442169D01*
X97885964Y-70442171D01*
X97786098Y-70656335D01*
X97786094Y-70656344D01*
X97724938Y-70884586D01*
X97724936Y-70884596D01*
X97704341Y-71119999D01*
X97704341Y-71120000D01*
X97724936Y-71355403D01*
X97724938Y-71355413D01*
X97786094Y-71583655D01*
X97786096Y-71583659D01*
X97786097Y-71583663D01*
X97874262Y-71772732D01*
X97885965Y-71797830D01*
X97885967Y-71797834D01*
X98021501Y-71991395D01*
X98021506Y-71991402D01*
X98188597Y-72158493D01*
X98188603Y-72158498D01*
X98374158Y-72288425D01*
X98417783Y-72343002D01*
X98424977Y-72412500D01*
X98393454Y-72474855D01*
X98374158Y-72491575D01*
X98188597Y-72621505D01*
X98021505Y-72788597D01*
X97885965Y-72982169D01*
X97885964Y-72982171D01*
X97786098Y-73196335D01*
X97786094Y-73196344D01*
X97724938Y-73424586D01*
X97724936Y-73424596D01*
X97704341Y-73659999D01*
X97704341Y-73660000D01*
X97724936Y-73895403D01*
X97724938Y-73895413D01*
X97786094Y-74123655D01*
X97786096Y-74123659D01*
X97786097Y-74123663D01*
X97874262Y-74312732D01*
X97885965Y-74337830D01*
X97885967Y-74337834D01*
X98021501Y-74531395D01*
X98021506Y-74531402D01*
X98188597Y-74698493D01*
X98188603Y-74698498D01*
X98374158Y-74828425D01*
X98417783Y-74883002D01*
X98424977Y-74952500D01*
X98393454Y-75014855D01*
X98374158Y-75031575D01*
X98188597Y-75161505D01*
X98021505Y-75328597D01*
X97885965Y-75522169D01*
X97885964Y-75522171D01*
X97786098Y-75736335D01*
X97786094Y-75736344D01*
X97724938Y-75964586D01*
X97724936Y-75964596D01*
X97704341Y-76199999D01*
X97704341Y-76200000D01*
X97724936Y-76435403D01*
X97724938Y-76435413D01*
X97786094Y-76663655D01*
X97786096Y-76663659D01*
X97786097Y-76663663D01*
X97874262Y-76852732D01*
X97885965Y-76877830D01*
X97885967Y-76877834D01*
X98021501Y-77071395D01*
X98021506Y-77071402D01*
X98188597Y-77238493D01*
X98188603Y-77238498D01*
X98374158Y-77368425D01*
X98417783Y-77423002D01*
X98424977Y-77492500D01*
X98393454Y-77554855D01*
X98374158Y-77571575D01*
X98188597Y-77701505D01*
X98021505Y-77868597D01*
X97885965Y-78062169D01*
X97885964Y-78062171D01*
X97786098Y-78276335D01*
X97786094Y-78276344D01*
X97724938Y-78504586D01*
X97724936Y-78504596D01*
X97704341Y-78739999D01*
X97704341Y-78740000D01*
X97724936Y-78975403D01*
X97724938Y-78975413D01*
X97786094Y-79203655D01*
X97786096Y-79203659D01*
X97786097Y-79203663D01*
X97850792Y-79342401D01*
X97885965Y-79417830D01*
X97885967Y-79417834D01*
X97994281Y-79572521D01*
X98021505Y-79611401D01*
X98188599Y-79778495D01*
X98359115Y-79897892D01*
X98374594Y-79908730D01*
X98418219Y-79963307D01*
X98425413Y-80032805D01*
X98393890Y-80095160D01*
X98374595Y-80111880D01*
X98188922Y-80241890D01*
X98188920Y-80241891D01*
X98021891Y-80408920D01*
X98021886Y-80408926D01*
X97886400Y-80602420D01*
X97886399Y-80602422D01*
X97786570Y-80816507D01*
X97786567Y-80816513D01*
X97729364Y-81029999D01*
X97729364Y-81030000D01*
X98626988Y-81030000D01*
X98594075Y-81087007D01*
X98560000Y-81214174D01*
X98560000Y-81345826D01*
X98594075Y-81472993D01*
X98626988Y-81530000D01*
X97729364Y-81530000D01*
X97786567Y-81743486D01*
X97786570Y-81743492D01*
X97886399Y-81957578D01*
X98021894Y-82151082D01*
X98188917Y-82318105D01*
X98374595Y-82448119D01*
X98418219Y-82502696D01*
X98425412Y-82572195D01*
X98393890Y-82634549D01*
X98374595Y-82651269D01*
X98188594Y-82781508D01*
X98021505Y-82948597D01*
X97885965Y-83142169D01*
X97885964Y-83142171D01*
X97786098Y-83356335D01*
X97786094Y-83356344D01*
X97724938Y-83584586D01*
X97724936Y-83584596D01*
X97704341Y-83819999D01*
X97704341Y-83820000D01*
X97724936Y-84055403D01*
X97724938Y-84055413D01*
X97786094Y-84283655D01*
X97786096Y-84283659D01*
X97786097Y-84283663D01*
X97850792Y-84422401D01*
X97885965Y-84497830D01*
X97885967Y-84497834D01*
X98021501Y-84691395D01*
X98021506Y-84691402D01*
X98188597Y-84858493D01*
X98188603Y-84858498D01*
X98374158Y-84988425D01*
X98417783Y-85043002D01*
X98424977Y-85112500D01*
X98393454Y-85174855D01*
X98374158Y-85191575D01*
X98188597Y-85321505D01*
X98021505Y-85488597D01*
X97885965Y-85682169D01*
X97885964Y-85682171D01*
X97786098Y-85896335D01*
X97786094Y-85896344D01*
X97724938Y-86124586D01*
X97724936Y-86124596D01*
X97704341Y-86359999D01*
X97704341Y-86360000D01*
X97724936Y-86595403D01*
X97724938Y-86595413D01*
X97786094Y-86823655D01*
X97786096Y-86823659D01*
X97786097Y-86823663D01*
X97804096Y-86862262D01*
X97885965Y-87037830D01*
X97885967Y-87037834D01*
X98021501Y-87231395D01*
X98021506Y-87231402D01*
X98188597Y-87398493D01*
X98188603Y-87398498D01*
X98374158Y-87528425D01*
X98417783Y-87583002D01*
X98424977Y-87652500D01*
X98393454Y-87714855D01*
X98374158Y-87731575D01*
X98188597Y-87861505D01*
X98021505Y-88028597D01*
X97885965Y-88222169D01*
X97885964Y-88222171D01*
X97786098Y-88436335D01*
X97786094Y-88436344D01*
X97724938Y-88664586D01*
X97724936Y-88664596D01*
X97704341Y-88899999D01*
X97704341Y-88900000D01*
X97724936Y-89135403D01*
X97724938Y-89135413D01*
X97786094Y-89363655D01*
X97786096Y-89363659D01*
X97786097Y-89363663D01*
X97855262Y-89511988D01*
X97885965Y-89577830D01*
X97885967Y-89577834D01*
X98021501Y-89771395D01*
X98021506Y-89771402D01*
X98188597Y-89938493D01*
X98188603Y-89938498D01*
X98374158Y-90068425D01*
X98417783Y-90123002D01*
X98424977Y-90192500D01*
X98393454Y-90254855D01*
X98374158Y-90271575D01*
X98188597Y-90401505D01*
X98021505Y-90568597D01*
X97885965Y-90762169D01*
X97885964Y-90762171D01*
X97786098Y-90976335D01*
X97786094Y-90976344D01*
X97724938Y-91204586D01*
X97724936Y-91204596D01*
X97704341Y-91439999D01*
X97704341Y-91440000D01*
X97724936Y-91675403D01*
X97724938Y-91675413D01*
X97786094Y-91903655D01*
X97786096Y-91903659D01*
X97786097Y-91903663D01*
X97804096Y-91942262D01*
X97885965Y-92117830D01*
X97885967Y-92117834D01*
X98021501Y-92311395D01*
X98021506Y-92311402D01*
X98188597Y-92478493D01*
X98188603Y-92478498D01*
X98374158Y-92608425D01*
X98417783Y-92663002D01*
X98424977Y-92732500D01*
X98393454Y-92794855D01*
X98374158Y-92811575D01*
X98188597Y-92941505D01*
X98021505Y-93108597D01*
X97885965Y-93302169D01*
X97885964Y-93302171D01*
X97786098Y-93516335D01*
X97786094Y-93516344D01*
X97724938Y-93744586D01*
X97724936Y-93744596D01*
X97704341Y-93979999D01*
X97704341Y-93980000D01*
X97724936Y-94215403D01*
X97724938Y-94215413D01*
X97786094Y-94443655D01*
X97786096Y-94443659D01*
X97786097Y-94443663D01*
X97874262Y-94632732D01*
X97885965Y-94657830D01*
X97885967Y-94657834D01*
X97994281Y-94812521D01*
X98021501Y-94851396D01*
X98021506Y-94851402D01*
X98188597Y-95018493D01*
X98188603Y-95018498D01*
X98374158Y-95148425D01*
X98417783Y-95203002D01*
X98424977Y-95272500D01*
X98393454Y-95334855D01*
X98374158Y-95351575D01*
X98188597Y-95481505D01*
X98021505Y-95648597D01*
X97885965Y-95842169D01*
X97885964Y-95842171D01*
X97786098Y-96056335D01*
X97786094Y-96056344D01*
X97724938Y-96284586D01*
X97724936Y-96284596D01*
X97704341Y-96519999D01*
X97704341Y-96520000D01*
X97724936Y-96755403D01*
X97724938Y-96755413D01*
X97786094Y-96983655D01*
X97786096Y-96983659D01*
X97786097Y-96983663D01*
X97874262Y-97172732D01*
X97885965Y-97197830D01*
X97885967Y-97197834D01*
X97994281Y-97352521D01*
X98021505Y-97391401D01*
X98188599Y-97558495D01*
X98285384Y-97626265D01*
X98382165Y-97694032D01*
X98382167Y-97694033D01*
X98382170Y-97694035D01*
X98596337Y-97793903D01*
X98824592Y-97855063D01*
X99001034Y-97870500D01*
X99059999Y-97875659D01*
X99060000Y-97875659D01*
X99060001Y-97875659D01*
X99118966Y-97870500D01*
X99295408Y-97855063D01*
X99523663Y-97793903D01*
X99737830Y-97694035D01*
X99931401Y-97558495D01*
X99988577Y-97501319D01*
X100049900Y-97467834D01*
X100076258Y-97465000D01*
X103194451Y-97465000D01*
X103261490Y-97484685D01*
X103282132Y-97501319D01*
X103300858Y-97520045D01*
X103300861Y-97520047D01*
X103487266Y-97650568D01*
X103693504Y-97746739D01*
X103913308Y-97805635D01*
X104075230Y-97819801D01*
X104139998Y-97825468D01*
X104140000Y-97825468D01*
X104140002Y-97825468D01*
X104196673Y-97820509D01*
X104366692Y-97805635D01*
X104586496Y-97746739D01*
X104792734Y-97650568D01*
X104979139Y-97520047D01*
X105140047Y-97359139D01*
X105270568Y-97172734D01*
X105366739Y-96966496D01*
X105425635Y-96746692D01*
X105445468Y-96520000D01*
X105425635Y-96293308D01*
X105366739Y-96073504D01*
X105270568Y-95867266D01*
X105140047Y-95680861D01*
X105140045Y-95680858D01*
X104979141Y-95519954D01*
X104792734Y-95389432D01*
X104792728Y-95389429D01*
X104734725Y-95362382D01*
X104682285Y-95316210D01*
X104663133Y-95249017D01*
X104683348Y-95182135D01*
X104734725Y-95137618D01*
X104792734Y-95110568D01*
X104979139Y-94980047D01*
X105140047Y-94819139D01*
X105270568Y-94632734D01*
X105366739Y-94426496D01*
X105425635Y-94206692D01*
X105445468Y-93980000D01*
X105425635Y-93753308D01*
X105366739Y-93533504D01*
X105270568Y-93327266D01*
X105140047Y-93140861D01*
X105140045Y-93140858D01*
X104979141Y-92979954D01*
X104792734Y-92849432D01*
X104792728Y-92849429D01*
X104734725Y-92822382D01*
X104682285Y-92776210D01*
X104663133Y-92709017D01*
X104683348Y-92642135D01*
X104734725Y-92597618D01*
X104792734Y-92570568D01*
X104979139Y-92440047D01*
X105140047Y-92279139D01*
X105270568Y-92092734D01*
X105366739Y-91886496D01*
X105425635Y-91666692D01*
X105445468Y-91440000D01*
X105425635Y-91213308D01*
X105366739Y-90993504D01*
X105270568Y-90787266D01*
X105140047Y-90600861D01*
X105140045Y-90600858D01*
X104979141Y-90439954D01*
X104792734Y-90309432D01*
X104792728Y-90309429D01*
X104734725Y-90282382D01*
X104682285Y-90236210D01*
X104663133Y-90169017D01*
X104683348Y-90102135D01*
X104734725Y-90057618D01*
X104792734Y-90030568D01*
X104979139Y-89900047D01*
X105140047Y-89739139D01*
X105270568Y-89552734D01*
X105289569Y-89511984D01*
X105335738Y-89459548D01*
X105402931Y-89440394D01*
X105469813Y-89460608D01*
X105489631Y-89476709D01*
X105542738Y-89529816D01*
X105579212Y-89552734D01*
X105670359Y-89610006D01*
X105695478Y-89625789D01*
X105747171Y-89643877D01*
X105865745Y-89685368D01*
X105865750Y-89685369D01*
X106044996Y-89705565D01*
X106045000Y-89705565D01*
X106045004Y-89705565D01*
X106224249Y-89685369D01*
X106224252Y-89685368D01*
X106224255Y-89685368D01*
X106394522Y-89625789D01*
X106418560Y-89610685D01*
X106419641Y-89610006D01*
X106485613Y-89591000D01*
X110591675Y-89591000D01*
X110658714Y-89610685D01*
X110693250Y-89643877D01*
X110759954Y-89739141D01*
X110920858Y-89900045D01*
X110920861Y-89900047D01*
X111107266Y-90030568D01*
X111165275Y-90057618D01*
X111217714Y-90103791D01*
X111236866Y-90170984D01*
X111216650Y-90237865D01*
X111165275Y-90282382D01*
X111107267Y-90309431D01*
X111107265Y-90309432D01*
X110920858Y-90439954D01*
X110759954Y-90600858D01*
X110693250Y-90696123D01*
X110638673Y-90739748D01*
X110591675Y-90749000D01*
X110295613Y-90749000D01*
X110229641Y-90729994D01*
X110204523Y-90714211D01*
X110034254Y-90654631D01*
X110034249Y-90654630D01*
X109855004Y-90634435D01*
X109854996Y-90634435D01*
X109675750Y-90654630D01*
X109675745Y-90654631D01*
X109505476Y-90714211D01*
X109352737Y-90810184D01*
X109225184Y-90937737D01*
X109129211Y-91090476D01*
X109069631Y-91260745D01*
X109069630Y-91260750D01*
X109049435Y-91439996D01*
X109049435Y-91440003D01*
X109069630Y-91619249D01*
X109069631Y-91619254D01*
X109129211Y-91789523D01*
X109200931Y-91903664D01*
X109225184Y-91942262D01*
X109352738Y-92069816D01*
X109389209Y-92092732D01*
X109480359Y-92150006D01*
X109505478Y-92165789D01*
X109557171Y-92183877D01*
X109675745Y-92225368D01*
X109675750Y-92225369D01*
X109854996Y-92245565D01*
X109855000Y-92245565D01*
X109855004Y-92245565D01*
X110034249Y-92225369D01*
X110034252Y-92225368D01*
X110034255Y-92225368D01*
X110204522Y-92165789D01*
X110228560Y-92150685D01*
X110229641Y-92150006D01*
X110295613Y-92131000D01*
X110591675Y-92131000D01*
X110658714Y-92150685D01*
X110693250Y-92183877D01*
X110759954Y-92279141D01*
X110920858Y-92440045D01*
X110920861Y-92440047D01*
X111107266Y-92570568D01*
X111165275Y-92597618D01*
X111217714Y-92643791D01*
X111236866Y-92710984D01*
X111216650Y-92777865D01*
X111165275Y-92822382D01*
X111107267Y-92849431D01*
X111107265Y-92849432D01*
X110920858Y-92979954D01*
X110759954Y-93140858D01*
X110629432Y-93327265D01*
X110629431Y-93327267D01*
X110533261Y-93533502D01*
X110533258Y-93533511D01*
X110474366Y-93753302D01*
X110474364Y-93753313D01*
X110454532Y-93979998D01*
X110454532Y-93980001D01*
X110474364Y-94206686D01*
X110474366Y-94206697D01*
X110533258Y-94426488D01*
X110533261Y-94426497D01*
X110629431Y-94632732D01*
X110629432Y-94632734D01*
X110759954Y-94819141D01*
X110920858Y-94980045D01*
X110920861Y-94980047D01*
X111107266Y-95110568D01*
X111165275Y-95137618D01*
X111217714Y-95183791D01*
X111236866Y-95250984D01*
X111216650Y-95317865D01*
X111165275Y-95362382D01*
X111107267Y-95389431D01*
X111107265Y-95389432D01*
X110920858Y-95519954D01*
X110759954Y-95680858D01*
X110629432Y-95867265D01*
X110629431Y-95867267D01*
X110533261Y-96073502D01*
X110533258Y-96073511D01*
X110474366Y-96293302D01*
X110474364Y-96293313D01*
X110454532Y-96519998D01*
X110454532Y-96520001D01*
X110474364Y-96746686D01*
X110474366Y-96746697D01*
X110533258Y-96966488D01*
X110533261Y-96966497D01*
X110629431Y-97172732D01*
X110629432Y-97172734D01*
X110759954Y-97359141D01*
X110920858Y-97520045D01*
X110920861Y-97520047D01*
X111107266Y-97650568D01*
X111313504Y-97746739D01*
X111533308Y-97805635D01*
X111695230Y-97819801D01*
X111759998Y-97825468D01*
X111760000Y-97825468D01*
X111760002Y-97825468D01*
X111816673Y-97820509D01*
X111986692Y-97805635D01*
X112206496Y-97746739D01*
X112412734Y-97650568D01*
X112599139Y-97520047D01*
X112599141Y-97520045D01*
X112617868Y-97501319D01*
X112679191Y-97467834D01*
X112705549Y-97465000D01*
X115405158Y-97465000D01*
X115472197Y-97484685D01*
X115517952Y-97537489D01*
X115521340Y-97545668D01*
X115546201Y-97612326D01*
X115546206Y-97612335D01*
X115632452Y-97727544D01*
X115632455Y-97727547D01*
X115747664Y-97813793D01*
X115747671Y-97813797D01*
X115882517Y-97864091D01*
X115882516Y-97864091D01*
X115889444Y-97864835D01*
X115942127Y-97870500D01*
X117737872Y-97870499D01*
X117797483Y-97864091D01*
X117932331Y-97813796D01*
X118047546Y-97727546D01*
X118133796Y-97612331D01*
X118184091Y-97477483D01*
X118190500Y-97417873D01*
X118190499Y-95622128D01*
X118184091Y-95562517D01*
X118133797Y-95427673D01*
X118133797Y-95427671D01*
X118133793Y-95427664D01*
X118047547Y-95312455D01*
X118047544Y-95312452D01*
X117932335Y-95226206D01*
X117932328Y-95226202D01*
X117800917Y-95177189D01*
X117744983Y-95135318D01*
X117720566Y-95069853D01*
X117735418Y-95001580D01*
X117756563Y-94973332D01*
X117878495Y-94851401D01*
X118014035Y-94657830D01*
X118113903Y-94443663D01*
X118175063Y-94215408D01*
X118195659Y-93980000D01*
X118175063Y-93744592D01*
X118113903Y-93516337D01*
X118014035Y-93302171D01*
X117878495Y-93108599D01*
X117878494Y-93108597D01*
X117711402Y-92941506D01*
X117711396Y-92941501D01*
X117525842Y-92811575D01*
X117482217Y-92756998D01*
X117475023Y-92687500D01*
X117506546Y-92625145D01*
X117525842Y-92608425D01*
X117579909Y-92570567D01*
X117711401Y-92478495D01*
X117878495Y-92311401D01*
X118014035Y-92117830D01*
X118113903Y-91903663D01*
X118175063Y-91675408D01*
X118195659Y-91440000D01*
X118175063Y-91204592D01*
X118113903Y-90976337D01*
X118014035Y-90762171D01*
X117998335Y-90739748D01*
X117878494Y-90568597D01*
X117711402Y-90401506D01*
X117711396Y-90401501D01*
X117525842Y-90271575D01*
X117482217Y-90216998D01*
X117475023Y-90147500D01*
X117506546Y-90085145D01*
X117525842Y-90068425D01*
X117579909Y-90030567D01*
X117711401Y-89938495D01*
X117878495Y-89771401D01*
X118014035Y-89577830D01*
X118113903Y-89363663D01*
X118175063Y-89135408D01*
X118195659Y-88900000D01*
X118175063Y-88664592D01*
X118113903Y-88436337D01*
X118014035Y-88222171D01*
X117998335Y-88199748D01*
X117878494Y-88028597D01*
X117711402Y-87861506D01*
X117711396Y-87861501D01*
X117525842Y-87731575D01*
X117482217Y-87676998D01*
X117475023Y-87607500D01*
X117506546Y-87545145D01*
X117525842Y-87528425D01*
X117579909Y-87490567D01*
X117711401Y-87398495D01*
X117878495Y-87231401D01*
X118014035Y-87037830D01*
X118113903Y-86823663D01*
X118175063Y-86595408D01*
X118195659Y-86360000D01*
X118175063Y-86124592D01*
X118113903Y-85896337D01*
X118014035Y-85682171D01*
X117998335Y-85659748D01*
X117878494Y-85488597D01*
X117711402Y-85321506D01*
X117711396Y-85321501D01*
X117525842Y-85191575D01*
X117482217Y-85136998D01*
X117475023Y-85067500D01*
X117506546Y-85005145D01*
X117525842Y-84988425D01*
X117579909Y-84950567D01*
X117711401Y-84858495D01*
X117878495Y-84691401D01*
X118014035Y-84497830D01*
X118113903Y-84283663D01*
X118175063Y-84055408D01*
X118195659Y-83820000D01*
X118175063Y-83584592D01*
X118118200Y-83372375D01*
X118113905Y-83356344D01*
X118113904Y-83356343D01*
X118113903Y-83356337D01*
X118014035Y-83142171D01*
X117902272Y-82982555D01*
X117878494Y-82948597D01*
X117711402Y-82781506D01*
X117711396Y-82781501D01*
X117525842Y-82651575D01*
X117482217Y-82596998D01*
X117475023Y-82527500D01*
X117506546Y-82465145D01*
X117525842Y-82448425D01*
X117579909Y-82410567D01*
X117711401Y-82318495D01*
X117878495Y-82151401D01*
X118014035Y-81957830D01*
X118113903Y-81743663D01*
X118175063Y-81515408D01*
X118195659Y-81280000D01*
X118175063Y-81044592D01*
X118113903Y-80816337D01*
X118014035Y-80602171D01*
X117878495Y-80408599D01*
X117878494Y-80408597D01*
X117711402Y-80241506D01*
X117711401Y-80241505D01*
X117540882Y-80122106D01*
X117525405Y-80111269D01*
X117481781Y-80056692D01*
X117474588Y-79987193D01*
X117506110Y-79924839D01*
X117525405Y-79908119D01*
X117711082Y-79778105D01*
X117878105Y-79611082D01*
X118013600Y-79417578D01*
X118113429Y-79203492D01*
X118113432Y-79203486D01*
X118170636Y-78990000D01*
X117273012Y-78990000D01*
X117305925Y-78932993D01*
X117340000Y-78805826D01*
X117340000Y-78674174D01*
X117305925Y-78547007D01*
X117273012Y-78490000D01*
X118170636Y-78490000D01*
X118170635Y-78489999D01*
X118113432Y-78276513D01*
X118113429Y-78276507D01*
X118013600Y-78062422D01*
X118013599Y-78062420D01*
X117878113Y-77868926D01*
X117878108Y-77868920D01*
X117711078Y-77701890D01*
X117525405Y-77571879D01*
X117481780Y-77517302D01*
X117474588Y-77447804D01*
X117506110Y-77385449D01*
X117525406Y-77368730D01*
X117540883Y-77357893D01*
X117711401Y-77238495D01*
X117878495Y-77071401D01*
X118014035Y-76877830D01*
X118113903Y-76663663D01*
X118175063Y-76435408D01*
X118195659Y-76200000D01*
X118175063Y-75964592D01*
X118113903Y-75736337D01*
X118014035Y-75522171D01*
X117878495Y-75328599D01*
X117878494Y-75328597D01*
X117711402Y-75161506D01*
X117711396Y-75161501D01*
X117525842Y-75031575D01*
X117482217Y-74976998D01*
X117475023Y-74907500D01*
X117506546Y-74845145D01*
X117525842Y-74828425D01*
X117579909Y-74790567D01*
X117711401Y-74698495D01*
X117878495Y-74531401D01*
X118014035Y-74337830D01*
X118113903Y-74123663D01*
X118175063Y-73895408D01*
X118195659Y-73660000D01*
X118175063Y-73424592D01*
X118113903Y-73196337D01*
X118014035Y-72982171D01*
X117878495Y-72788599D01*
X117878494Y-72788597D01*
X117711402Y-72621506D01*
X117711396Y-72621501D01*
X117525842Y-72491575D01*
X117482217Y-72436998D01*
X117475023Y-72367500D01*
X117506546Y-72305145D01*
X117525842Y-72288425D01*
X117579909Y-72250567D01*
X117711401Y-72158495D01*
X117878495Y-71991401D01*
X118014035Y-71797830D01*
X118113903Y-71583663D01*
X118175063Y-71355408D01*
X118195659Y-71120000D01*
X118175063Y-70884592D01*
X118113903Y-70656337D01*
X118014035Y-70442171D01*
X117878495Y-70248599D01*
X117878494Y-70248597D01*
X117711402Y-70081506D01*
X117711396Y-70081501D01*
X117525842Y-69951575D01*
X117482217Y-69896998D01*
X117475023Y-69827500D01*
X117506546Y-69765145D01*
X117525842Y-69748425D01*
X117579909Y-69710567D01*
X117711401Y-69618495D01*
X117878495Y-69451401D01*
X118014035Y-69257830D01*
X118113903Y-69043663D01*
X118175063Y-68815408D01*
X118195659Y-68580000D01*
X118175063Y-68344592D01*
X118113903Y-68116337D01*
X118014035Y-67902171D01*
X117878495Y-67708599D01*
X117878494Y-67708597D01*
X117711402Y-67541506D01*
X117711396Y-67541501D01*
X117525842Y-67411575D01*
X117482217Y-67356998D01*
X117475023Y-67287500D01*
X117506546Y-67225145D01*
X117525842Y-67208425D01*
X117579909Y-67170567D01*
X117711401Y-67078495D01*
X117878495Y-66911401D01*
X118014035Y-66717830D01*
X118113903Y-66503663D01*
X118175063Y-66275408D01*
X118195659Y-66040000D01*
X118175063Y-65804592D01*
X118113903Y-65576337D01*
X118014035Y-65362171D01*
X117878495Y-65168599D01*
X117878494Y-65168597D01*
X117711402Y-65001506D01*
X117711396Y-65001501D01*
X117525842Y-64871575D01*
X117482217Y-64816998D01*
X117475023Y-64747500D01*
X117506546Y-64685145D01*
X117525842Y-64668425D01*
X117579909Y-64630567D01*
X117711401Y-64538495D01*
X117878495Y-64371401D01*
X118014035Y-64177830D01*
X118113903Y-63963663D01*
X118175063Y-63735408D01*
X118195659Y-63500000D01*
X118195205Y-63494816D01*
X118175063Y-63264596D01*
X118175063Y-63264592D01*
X118113903Y-63036337D01*
X118014035Y-62822171D01*
X117980454Y-62774211D01*
X117878494Y-62628597D01*
X117711402Y-62461506D01*
X117711395Y-62461501D01*
X117705922Y-62457669D01*
X117672521Y-62434281D01*
X117517834Y-62325967D01*
X117517830Y-62325965D01*
X117517828Y-62325964D01*
X117303663Y-62226097D01*
X117303659Y-62226096D01*
X117303655Y-62226094D01*
X117075413Y-62164938D01*
X117075403Y-62164936D01*
X116840001Y-62144341D01*
X116839999Y-62144341D01*
X116604596Y-62164936D01*
X116604586Y-62164938D01*
X116376344Y-62226094D01*
X116376335Y-62226098D01*
X116162171Y-62325964D01*
X116162169Y-62325965D01*
X115968600Y-62461503D01*
X115947593Y-62482511D01*
X115911421Y-62518682D01*
X115850101Y-62552166D01*
X115823742Y-62555000D01*
X112705549Y-62555000D01*
X112638510Y-62535315D01*
X112617868Y-62518681D01*
X112599141Y-62499954D01*
X112412734Y-62369432D01*
X112412732Y-62369431D01*
X112206497Y-62273261D01*
X112206488Y-62273258D01*
X111986697Y-62214366D01*
X111986687Y-62214364D01*
X111788296Y-62197007D01*
X111723228Y-62171554D01*
X111682249Y-62114963D01*
X111678371Y-62045201D01*
X111711421Y-61985800D01*
X112931735Y-60765487D01*
X113007356Y-60652311D01*
X113059445Y-60526557D01*
X113069627Y-60475368D01*
X113086000Y-60393058D01*
X113086000Y-52636942D01*
X113086000Y-52636939D01*
X113069100Y-52551981D01*
X113059445Y-52503443D01*
X113045013Y-52468599D01*
X113014527Y-52395000D01*
X113007357Y-52377690D01*
X113007352Y-52377681D01*
X112931735Y-52264513D01*
X112931732Y-52264509D01*
X112179403Y-51512181D01*
X112145918Y-51450858D01*
X112150902Y-51381167D01*
X112192774Y-51325233D01*
X112258238Y-51300816D01*
X112267084Y-51300500D01*
X116774108Y-51300500D01*
X116835933Y-51300500D01*
X116844042Y-51300765D01*
X116866774Y-51302254D01*
X117098114Y-51317417D01*
X117114172Y-51319532D01*
X117359888Y-51368408D01*
X117375554Y-51372606D01*
X117526736Y-51423925D01*
X117612788Y-51453136D01*
X117627765Y-51459339D01*
X117845336Y-51566633D01*
X117852460Y-51570146D01*
X117866508Y-51578256D01*
X118074815Y-51717443D01*
X118087679Y-51727314D01*
X118276033Y-51892497D01*
X118287502Y-51903966D01*
X118452685Y-52092320D01*
X118462559Y-52105188D01*
X118601743Y-52313492D01*
X118609853Y-52327539D01*
X118720657Y-52552227D01*
X118726864Y-52567213D01*
X118807393Y-52804445D01*
X118811591Y-52820111D01*
X118860465Y-53065813D01*
X118862583Y-53081895D01*
X118879235Y-53335956D01*
X118879500Y-53344066D01*
X118879500Y-106675933D01*
X118879235Y-106684043D01*
X118862583Y-106938104D01*
X118860465Y-106954186D01*
X118811591Y-107199888D01*
X118807393Y-107215554D01*
X118726864Y-107452786D01*
X118720657Y-107467772D01*
X118609853Y-107692460D01*
X118601743Y-107706507D01*
X118462559Y-107914811D01*
X118452685Y-107927679D01*
X118287502Y-108116033D01*
X118276033Y-108127502D01*
X118087679Y-108292685D01*
X118074811Y-108302559D01*
X117866507Y-108441743D01*
X117852460Y-108449853D01*
X117627772Y-108560657D01*
X117612786Y-108566864D01*
X117375554Y-108647393D01*
X117359888Y-108651591D01*
X117114186Y-108700465D01*
X117098104Y-108702583D01*
X116844043Y-108719235D01*
X116835933Y-108719500D01*
X99064067Y-108719500D01*
X99055957Y-108719235D01*
X98801895Y-108702583D01*
X98785814Y-108700465D01*
X98750770Y-108693494D01*
X98540111Y-108651591D01*
X98524445Y-108647393D01*
X98287213Y-108566864D01*
X98272227Y-108560657D01*
X98047539Y-108449853D01*
X98033492Y-108441743D01*
X97825188Y-108302559D01*
X97812320Y-108292685D01*
X97623966Y-108127502D01*
X97612497Y-108116033D01*
X97447314Y-107927679D01*
X97437440Y-107914811D01*
X97298256Y-107706507D01*
X97290146Y-107692460D01*
X97179464Y-107468019D01*
X97179339Y-107467765D01*
X97173135Y-107452786D01*
X97092606Y-107215554D01*
X97088408Y-107199888D01*
X97079736Y-107156292D01*
X97039532Y-106954172D01*
X97037417Y-106938114D01*
X97020765Y-106684042D01*
X97020500Y-106675933D01*
X97020500Y-105410002D01*
X104244723Y-105410002D01*
X104263793Y-105627975D01*
X104263793Y-105627979D01*
X104320422Y-105839322D01*
X104320424Y-105839326D01*
X104320425Y-105839330D01*
X104366661Y-105938484D01*
X104412897Y-106037638D01*
X104412898Y-106037639D01*
X104538402Y-106216877D01*
X104693123Y-106371598D01*
X104872361Y-106497102D01*
X105070670Y-106589575D01*
X105282023Y-106646207D01*
X105464926Y-106662208D01*
X105499998Y-106665277D01*
X105500000Y-106665277D01*
X105500002Y-106665277D01*
X105528254Y-106662805D01*
X105717977Y-106646207D01*
X105929330Y-106589575D01*
X106127639Y-106497102D01*
X106306877Y-106371598D01*
X106461598Y-106216877D01*
X106587102Y-106037639D01*
X106679575Y-105839330D01*
X106736207Y-105627977D01*
X106755277Y-105410002D01*
X109124723Y-105410002D01*
X109143793Y-105627975D01*
X109143793Y-105627979D01*
X109200422Y-105839322D01*
X109200424Y-105839326D01*
X109200425Y-105839330D01*
X109246661Y-105938484D01*
X109292897Y-106037638D01*
X109292898Y-106037639D01*
X109418402Y-106216877D01*
X109573123Y-106371598D01*
X109752361Y-106497102D01*
X109950670Y-106589575D01*
X110162023Y-106646207D01*
X110344926Y-106662208D01*
X110379998Y-106665277D01*
X110380000Y-106665277D01*
X110380002Y-106665277D01*
X110408254Y-106662805D01*
X110597977Y-106646207D01*
X110809330Y-106589575D01*
X111007639Y-106497102D01*
X111186877Y-106371598D01*
X111341598Y-106216877D01*
X111467102Y-106037639D01*
X111559575Y-105839330D01*
X111616207Y-105627977D01*
X111635277Y-105410000D01*
X111616207Y-105192023D01*
X111559575Y-104980670D01*
X111467102Y-104782362D01*
X111467100Y-104782359D01*
X111467099Y-104782357D01*
X111341599Y-104603124D01*
X111341596Y-104603121D01*
X111186877Y-104448402D01*
X111007639Y-104322898D01*
X111007640Y-104322898D01*
X111007638Y-104322897D01*
X110908484Y-104276661D01*
X110809330Y-104230425D01*
X110809326Y-104230424D01*
X110809322Y-104230422D01*
X110597977Y-104173793D01*
X110380002Y-104154723D01*
X110379998Y-104154723D01*
X110234682Y-104167436D01*
X110162023Y-104173793D01*
X110162020Y-104173793D01*
X109950677Y-104230422D01*
X109950668Y-104230426D01*
X109752361Y-104322898D01*
X109752357Y-104322900D01*
X109573121Y-104448402D01*
X109418402Y-104603121D01*
X109292900Y-104782357D01*
X109292898Y-104782361D01*
X109200426Y-104980668D01*
X109200422Y-104980677D01*
X109143793Y-105192020D01*
X109143793Y-105192024D01*
X109124723Y-105409997D01*
X109124723Y-105410002D01*
X106755277Y-105410002D01*
X106755277Y-105410000D01*
X106736207Y-105192023D01*
X106679575Y-104980670D01*
X106587102Y-104782362D01*
X106587100Y-104782359D01*
X106587099Y-104782357D01*
X106461599Y-104603124D01*
X106461596Y-104603121D01*
X106306877Y-104448402D01*
X106127639Y-104322898D01*
X106127640Y-104322898D01*
X106127638Y-104322897D01*
X106028484Y-104276661D01*
X105929330Y-104230425D01*
X105929326Y-104230424D01*
X105929322Y-104230422D01*
X105717977Y-104173793D01*
X105500002Y-104154723D01*
X105499998Y-104154723D01*
X105354682Y-104167436D01*
X105282023Y-104173793D01*
X105282020Y-104173793D01*
X105070677Y-104230422D01*
X105070668Y-104230426D01*
X104872361Y-104322898D01*
X104872357Y-104322900D01*
X104693121Y-104448402D01*
X104538402Y-104603121D01*
X104412900Y-104782357D01*
X104412898Y-104782361D01*
X104320426Y-104980668D01*
X104320422Y-104980677D01*
X104263793Y-105192020D01*
X104263793Y-105192024D01*
X104244723Y-105409997D01*
X104244723Y-105410002D01*
X97020500Y-105410002D01*
X97020500Y-53344066D01*
X97020765Y-53335957D01*
X97024819Y-53274108D01*
X97037417Y-53081883D01*
X97039531Y-53065829D01*
X97088409Y-52820107D01*
X97092606Y-52804445D01*
X97137071Y-52673454D01*
X97173138Y-52567205D01*
X97179336Y-52552239D01*
X97290149Y-52327533D01*
X97298252Y-52313498D01*
X97437448Y-52105176D01*
X97447305Y-52092331D01*
X97612502Y-51903960D01*
X97623960Y-51892502D01*
X97812331Y-51727305D01*
X97825176Y-51717448D01*
X98033498Y-51578252D01*
X98047533Y-51570149D01*
X98272239Y-51459336D01*
X98287205Y-51453138D01*
X98499225Y-51381167D01*
X98524445Y-51372606D01*
X98540107Y-51368409D01*
X98785829Y-51319531D01*
X98801883Y-51317417D01*
X99034848Y-51302148D01*
X99055958Y-51300765D01*
X99064067Y-51300500D01*
X99125892Y-51300500D01*
X107498416Y-51300500D01*
X107565455Y-51320185D01*
G37*
%TD.AperFunction*%
%TA.AperFunction,Conductor*%
G36*
X111623334Y-56759076D02*
G01*
X111679267Y-56800948D01*
X111703684Y-56866412D01*
X111704000Y-56875258D01*
X111704000Y-59987416D01*
X111684315Y-60054455D01*
X111667681Y-60075097D01*
X110684513Y-61058265D01*
X109676376Y-62066400D01*
X109629651Y-62095760D01*
X109505476Y-62139211D01*
X109505475Y-62139212D01*
X109352737Y-62235184D01*
X109225184Y-62362737D01*
X109129211Y-62515476D01*
X109069631Y-62685745D01*
X109069630Y-62685750D01*
X109049435Y-62864996D01*
X109049435Y-62865003D01*
X109069630Y-63044249D01*
X109069631Y-63044254D01*
X109129211Y-63214523D01*
X109225184Y-63367262D01*
X109352738Y-63494816D01*
X109505478Y-63590789D01*
X109644100Y-63639295D01*
X109675745Y-63650368D01*
X109675750Y-63650369D01*
X109854996Y-63670565D01*
X109855000Y-63670565D01*
X109855004Y-63670565D01*
X110034249Y-63650369D01*
X110034252Y-63650368D01*
X110034255Y-63650368D01*
X110204522Y-63590789D01*
X110277218Y-63545110D01*
X110344453Y-63526110D01*
X110411289Y-63546477D01*
X110456503Y-63599744D01*
X110466718Y-63639295D01*
X110474364Y-63726687D01*
X110474366Y-63726697D01*
X110533258Y-63946488D01*
X110533261Y-63946497D01*
X110629431Y-64152732D01*
X110629432Y-64152734D01*
X110759954Y-64339141D01*
X110920858Y-64500045D01*
X110920861Y-64500047D01*
X111107266Y-64630568D01*
X111165275Y-64657618D01*
X111217714Y-64703791D01*
X111236866Y-64770984D01*
X111216650Y-64837865D01*
X111165275Y-64882381D01*
X111148272Y-64890310D01*
X111107267Y-64909431D01*
X111107265Y-64909432D01*
X110920858Y-65039954D01*
X110759954Y-65200858D01*
X110629432Y-65387265D01*
X110629431Y-65387267D01*
X110533261Y-65593502D01*
X110533258Y-65593511D01*
X110474366Y-65813302D01*
X110474364Y-65813313D01*
X110454532Y-66039998D01*
X110454532Y-66040001D01*
X110474364Y-66266686D01*
X110474366Y-66266697D01*
X110533258Y-66486488D01*
X110533261Y-66486497D01*
X110629431Y-66692732D01*
X110629432Y-66692734D01*
X110759954Y-66879141D01*
X110920858Y-67040045D01*
X110920861Y-67040047D01*
X111107266Y-67170568D01*
X111165275Y-67197618D01*
X111217714Y-67243791D01*
X111236866Y-67310984D01*
X111216650Y-67377865D01*
X111165275Y-67422382D01*
X111107267Y-67449431D01*
X111107265Y-67449432D01*
X110920858Y-67579954D01*
X110759954Y-67740858D01*
X110629432Y-67927265D01*
X110629431Y-67927267D01*
X110533261Y-68133502D01*
X110533258Y-68133511D01*
X110474366Y-68353302D01*
X110474364Y-68353313D01*
X110454532Y-68579998D01*
X110454532Y-68580001D01*
X110474364Y-68806686D01*
X110474366Y-68806697D01*
X110533258Y-69026488D01*
X110533261Y-69026497D01*
X110629431Y-69232732D01*
X110629432Y-69232734D01*
X110759954Y-69419141D01*
X110920858Y-69580045D01*
X110920861Y-69580047D01*
X111107266Y-69710568D01*
X111165275Y-69737618D01*
X111217714Y-69783791D01*
X111236866Y-69850984D01*
X111216650Y-69917865D01*
X111165275Y-69962382D01*
X111107267Y-69989431D01*
X111107265Y-69989432D01*
X110920858Y-70119954D01*
X110759954Y-70280858D01*
X110629432Y-70467265D01*
X110629431Y-70467267D01*
X110533261Y-70673502D01*
X110533258Y-70673511D01*
X110474366Y-70893302D01*
X110474364Y-70893313D01*
X110454532Y-71119998D01*
X110454532Y-71120001D01*
X110474364Y-71346686D01*
X110474366Y-71346697D01*
X110533258Y-71566488D01*
X110533261Y-71566497D01*
X110629431Y-71772732D01*
X110629432Y-71772734D01*
X110759954Y-71959141D01*
X110920858Y-72120045D01*
X110920861Y-72120047D01*
X111107266Y-72250568D01*
X111165275Y-72277618D01*
X111217714Y-72323791D01*
X111236866Y-72390984D01*
X111216650Y-72457865D01*
X111165275Y-72502382D01*
X111107267Y-72529431D01*
X111107265Y-72529432D01*
X110920858Y-72659954D01*
X110759954Y-72820858D01*
X110629432Y-73007265D01*
X110629431Y-73007267D01*
X110533261Y-73213502D01*
X110533258Y-73213511D01*
X110474366Y-73433302D01*
X110474364Y-73433313D01*
X110454532Y-73659998D01*
X110454532Y-73660001D01*
X110474364Y-73886686D01*
X110474366Y-73886697D01*
X110533258Y-74106488D01*
X110533261Y-74106497D01*
X110629431Y-74312732D01*
X110629432Y-74312734D01*
X110759954Y-74499141D01*
X110920858Y-74660045D01*
X110920861Y-74660047D01*
X111107266Y-74790568D01*
X111165275Y-74817618D01*
X111217714Y-74863791D01*
X111236866Y-74930984D01*
X111216650Y-74997865D01*
X111165275Y-75042382D01*
X111107267Y-75069431D01*
X111107265Y-75069432D01*
X110920858Y-75199954D01*
X110759954Y-75360858D01*
X110629432Y-75547265D01*
X110629431Y-75547267D01*
X110533261Y-75753502D01*
X110533258Y-75753511D01*
X110474366Y-75973302D01*
X110474364Y-75973313D01*
X110454532Y-76199998D01*
X110454532Y-76200001D01*
X110474364Y-76426686D01*
X110474366Y-76426697D01*
X110533258Y-76646488D01*
X110533261Y-76646497D01*
X110629431Y-76852732D01*
X110629432Y-76852734D01*
X110759954Y-77039141D01*
X110920858Y-77200045D01*
X110920861Y-77200047D01*
X111107266Y-77330568D01*
X111165865Y-77357893D01*
X111218305Y-77404065D01*
X111237457Y-77471258D01*
X111217242Y-77538139D01*
X111165867Y-77582657D01*
X111107515Y-77609867D01*
X110921179Y-77740342D01*
X110760342Y-77901179D01*
X110629865Y-78087517D01*
X110533734Y-78293673D01*
X110533730Y-78293682D01*
X110481127Y-78489999D01*
X110481128Y-78490000D01*
X111444314Y-78490000D01*
X111439920Y-78494394D01*
X111387259Y-78585606D01*
X111360000Y-78687339D01*
X111360000Y-78792661D01*
X111387259Y-78894394D01*
X111439920Y-78985606D01*
X111444314Y-78990000D01*
X110481128Y-78990000D01*
X110533730Y-79186317D01*
X110533734Y-79186326D01*
X110629865Y-79392482D01*
X110760342Y-79578820D01*
X110921179Y-79739657D01*
X111107518Y-79870134D01*
X111107520Y-79870135D01*
X111165865Y-79897342D01*
X111218305Y-79943514D01*
X111237457Y-80010707D01*
X111217242Y-80077589D01*
X111165867Y-80122105D01*
X111164685Y-80122657D01*
X111107264Y-80149433D01*
X110920858Y-80279954D01*
X110759954Y-80440858D01*
X110629432Y-80627265D01*
X110629431Y-80627267D01*
X110533261Y-80833502D01*
X110533258Y-80833511D01*
X110474366Y-81053302D01*
X110474364Y-81053313D01*
X110454532Y-81279998D01*
X110454532Y-81280001D01*
X110474364Y-81506686D01*
X110474366Y-81506697D01*
X110533258Y-81726488D01*
X110533261Y-81726497D01*
X110629431Y-81932732D01*
X110629432Y-81932734D01*
X110759954Y-82119141D01*
X110920858Y-82280045D01*
X110920861Y-82280047D01*
X111107266Y-82410568D01*
X111164681Y-82437341D01*
X111165275Y-82437618D01*
X111217714Y-82483791D01*
X111236866Y-82550984D01*
X111216650Y-82617865D01*
X111165275Y-82662382D01*
X111107267Y-82689431D01*
X111107265Y-82689432D01*
X110920858Y-82819954D01*
X110902132Y-82838681D01*
X110840809Y-82872166D01*
X110814451Y-82875000D01*
X108491923Y-82875000D01*
X108309361Y-82911314D01*
X108309353Y-82911316D01*
X108137377Y-82982550D01*
X108137368Y-82982555D01*
X107982598Y-83085970D01*
X107982594Y-83085973D01*
X107850973Y-83217594D01*
X107850970Y-83217598D01*
X107747555Y-83372368D01*
X107747550Y-83372377D01*
X107676316Y-83544353D01*
X107676314Y-83544361D01*
X107640000Y-83726921D01*
X107640000Y-83913078D01*
X107676314Y-84095638D01*
X107676316Y-84095646D01*
X107747550Y-84267622D01*
X107747555Y-84267631D01*
X107850970Y-84422401D01*
X107850973Y-84422405D01*
X107982594Y-84554026D01*
X107982598Y-84554029D01*
X108137368Y-84657444D01*
X108137374Y-84657447D01*
X108137375Y-84657448D01*
X108309354Y-84728684D01*
X108491921Y-84764999D01*
X108491924Y-84765000D01*
X108491926Y-84765000D01*
X110814451Y-84765000D01*
X110881490Y-84784685D01*
X110902132Y-84801319D01*
X110920858Y-84820045D01*
X110920861Y-84820047D01*
X111107266Y-84950568D01*
X111165275Y-84977618D01*
X111217714Y-85023791D01*
X111236866Y-85090984D01*
X111216650Y-85157865D01*
X111165275Y-85202382D01*
X111107267Y-85229431D01*
X111107265Y-85229432D01*
X110920858Y-85359954D01*
X110759954Y-85520858D01*
X110693250Y-85616123D01*
X110638673Y-85659748D01*
X110591675Y-85669000D01*
X107120613Y-85669000D01*
X107054641Y-85649994D01*
X107029523Y-85634211D01*
X106859254Y-85574631D01*
X106859249Y-85574630D01*
X106680004Y-85554435D01*
X106679996Y-85554435D01*
X106500750Y-85574630D01*
X106500745Y-85574631D01*
X106330476Y-85634211D01*
X106177737Y-85730184D01*
X106050184Y-85857737D01*
X105954211Y-86010476D01*
X105894631Y-86180745D01*
X105894630Y-86180750D01*
X105874435Y-86359996D01*
X105874435Y-86360003D01*
X105894630Y-86539249D01*
X105894631Y-86539254D01*
X105954211Y-86709523D01*
X106025931Y-86823664D01*
X106050184Y-86862262D01*
X106177738Y-86989816D01*
X106214209Y-87012732D01*
X106305359Y-87070006D01*
X106330478Y-87085789D01*
X106382171Y-87103877D01*
X106500745Y-87145368D01*
X106500750Y-87145369D01*
X106679996Y-87165565D01*
X106680000Y-87165565D01*
X106680004Y-87165565D01*
X106859249Y-87145369D01*
X106859252Y-87145368D01*
X106859255Y-87145368D01*
X107029522Y-87085789D01*
X107053560Y-87070685D01*
X107054641Y-87070006D01*
X107120613Y-87051000D01*
X110591675Y-87051000D01*
X110658714Y-87070685D01*
X110693250Y-87103877D01*
X110759954Y-87199141D01*
X110920858Y-87360045D01*
X110920861Y-87360047D01*
X111107266Y-87490568D01*
X111165275Y-87517618D01*
X111217714Y-87563791D01*
X111236866Y-87630984D01*
X111216650Y-87697865D01*
X111165275Y-87742382D01*
X111107267Y-87769431D01*
X111107265Y-87769432D01*
X110920858Y-87899954D01*
X110759954Y-88060858D01*
X110693250Y-88156123D01*
X110638673Y-88199748D01*
X110591675Y-88209000D01*
X106485613Y-88209000D01*
X106419641Y-88189994D01*
X106394523Y-88174211D01*
X106224254Y-88114631D01*
X106224249Y-88114630D01*
X106045004Y-88094435D01*
X106044996Y-88094435D01*
X105865750Y-88114630D01*
X105865745Y-88114631D01*
X105695476Y-88174211D01*
X105542737Y-88270184D01*
X105489630Y-88323291D01*
X105428307Y-88356775D01*
X105358615Y-88351790D01*
X105302682Y-88309919D01*
X105289572Y-88288021D01*
X105270568Y-88247266D01*
X105140047Y-88060861D01*
X105140045Y-88060858D01*
X104979141Y-87899954D01*
X104792734Y-87769432D01*
X104792728Y-87769429D01*
X104734725Y-87742382D01*
X104682285Y-87696210D01*
X104663133Y-87629017D01*
X104683348Y-87562135D01*
X104734725Y-87517618D01*
X104792734Y-87490568D01*
X104979139Y-87360047D01*
X105140047Y-87199139D01*
X105270568Y-87012734D01*
X105366739Y-86806496D01*
X105425635Y-86586692D01*
X105445468Y-86360000D01*
X105425635Y-86133308D01*
X105366739Y-85913504D01*
X105270568Y-85707266D01*
X105140047Y-85520861D01*
X105140045Y-85520858D01*
X104979141Y-85359954D01*
X104792734Y-85229432D01*
X104792728Y-85229429D01*
X104734725Y-85202382D01*
X104682285Y-85156210D01*
X104663133Y-85089017D01*
X104683348Y-85022135D01*
X104734725Y-84977618D01*
X104792734Y-84950568D01*
X104979139Y-84820047D01*
X105140047Y-84659139D01*
X105270568Y-84472734D01*
X105366739Y-84266496D01*
X105425635Y-84046692D01*
X105445468Y-83820000D01*
X105425635Y-83593308D01*
X105366739Y-83373504D01*
X105270568Y-83167266D01*
X105140047Y-82980861D01*
X105140045Y-82980858D01*
X104979141Y-82819954D01*
X104792734Y-82689432D01*
X104792732Y-82689431D01*
X104734725Y-82662382D01*
X104734132Y-82662105D01*
X104681694Y-82615934D01*
X104662542Y-82548740D01*
X104682758Y-82481859D01*
X104734134Y-82437341D01*
X104792484Y-82410132D01*
X104978820Y-82279657D01*
X105139657Y-82118820D01*
X105270134Y-81932482D01*
X105366265Y-81726326D01*
X105366269Y-81726317D01*
X105418872Y-81530000D01*
X104455686Y-81530000D01*
X104460080Y-81525606D01*
X104512741Y-81434394D01*
X104540000Y-81332661D01*
X104540000Y-81227339D01*
X104512741Y-81125606D01*
X104460080Y-81034394D01*
X104455686Y-81030000D01*
X105418872Y-81030000D01*
X105418872Y-81029999D01*
X105366269Y-80833682D01*
X105366265Y-80833673D01*
X105270134Y-80627517D01*
X105139657Y-80441179D01*
X104978820Y-80280342D01*
X104792482Y-80149865D01*
X104734133Y-80122657D01*
X104681694Y-80076484D01*
X104662542Y-80009291D01*
X104682758Y-79942410D01*
X104734129Y-79897895D01*
X104792734Y-79870568D01*
X104979139Y-79740047D01*
X104979529Y-79739657D01*
X104997868Y-79721319D01*
X105059191Y-79687834D01*
X105085549Y-79685000D01*
X108678076Y-79685000D01*
X108678077Y-79684999D01*
X108860646Y-79648684D01*
X109032625Y-79577448D01*
X109187402Y-79474029D01*
X109319029Y-79342402D01*
X109422448Y-79187625D01*
X109493684Y-79015646D01*
X109530000Y-78833074D01*
X109530000Y-78646926D01*
X109530000Y-78646923D01*
X109529999Y-78646921D01*
X109510125Y-78547007D01*
X109493684Y-78464354D01*
X109438586Y-78331336D01*
X109422449Y-78292377D01*
X109422444Y-78292368D01*
X109319029Y-78137598D01*
X109319026Y-78137594D01*
X109187405Y-78005973D01*
X109187401Y-78005970D01*
X109032631Y-77902555D01*
X109032622Y-77902550D01*
X108860646Y-77831316D01*
X108860638Y-77831314D01*
X108678077Y-77795000D01*
X108678074Y-77795000D01*
X105085549Y-77795000D01*
X105018510Y-77775315D01*
X104997868Y-77758681D01*
X104979141Y-77739954D01*
X104792734Y-77609432D01*
X104792728Y-77609429D01*
X104734725Y-77582382D01*
X104682285Y-77536210D01*
X104663133Y-77469017D01*
X104683348Y-77402135D01*
X104734725Y-77357618D01*
X104792734Y-77330568D01*
X104979139Y-77200047D01*
X105140047Y-77039139D01*
X105270568Y-76852734D01*
X105366739Y-76646496D01*
X105425635Y-76426692D01*
X105445468Y-76200000D01*
X105425635Y-75973308D01*
X105366739Y-75753504D01*
X105270568Y-75547266D01*
X105140047Y-75360861D01*
X105140045Y-75360858D01*
X104979141Y-75199954D01*
X104792734Y-75069432D01*
X104792728Y-75069429D01*
X104734725Y-75042382D01*
X104682285Y-74996210D01*
X104663133Y-74929017D01*
X104683348Y-74862135D01*
X104734725Y-74817618D01*
X104792734Y-74790568D01*
X104979139Y-74660047D01*
X105140047Y-74499139D01*
X105270568Y-74312734D01*
X105366739Y-74106496D01*
X105425635Y-73886692D01*
X105445468Y-73660000D01*
X105425635Y-73433308D01*
X105366739Y-73213504D01*
X105270568Y-73007266D01*
X105140047Y-72820861D01*
X105140045Y-72820858D01*
X104979141Y-72659954D01*
X104792734Y-72529432D01*
X104792728Y-72529429D01*
X104734725Y-72502382D01*
X104682285Y-72456210D01*
X104663133Y-72389017D01*
X104683348Y-72322135D01*
X104734725Y-72277618D01*
X104792734Y-72250568D01*
X104979139Y-72120047D01*
X105140047Y-71959139D01*
X105270568Y-71772734D01*
X105366739Y-71566496D01*
X105425635Y-71346692D01*
X105445468Y-71120000D01*
X105425635Y-70893308D01*
X105366739Y-70673504D01*
X105270568Y-70467266D01*
X105140047Y-70280861D01*
X105140045Y-70280858D01*
X104979141Y-70119954D01*
X104792734Y-69989432D01*
X104792728Y-69989429D01*
X104734725Y-69962382D01*
X104682285Y-69916210D01*
X104663133Y-69849017D01*
X104683348Y-69782135D01*
X104734725Y-69737618D01*
X104792734Y-69710568D01*
X104979139Y-69580047D01*
X105140047Y-69419139D01*
X105270568Y-69232734D01*
X105366739Y-69026496D01*
X105425635Y-68806692D01*
X105445468Y-68580000D01*
X105425635Y-68353308D01*
X105366739Y-68133504D01*
X105270568Y-67927266D01*
X105140047Y-67740861D01*
X105140045Y-67740858D01*
X104979141Y-67579954D01*
X104792734Y-67449432D01*
X104792728Y-67449429D01*
X104734725Y-67422382D01*
X104682285Y-67376210D01*
X104663133Y-67309017D01*
X104683348Y-67242135D01*
X104734725Y-67197618D01*
X104792734Y-67170568D01*
X104979139Y-67040047D01*
X105140047Y-66879139D01*
X105270568Y-66692734D01*
X105366739Y-66486496D01*
X105425635Y-66266692D01*
X105445468Y-66040000D01*
X105425635Y-65813308D01*
X105366739Y-65593504D01*
X105270568Y-65387266D01*
X105140047Y-65200861D01*
X105140045Y-65200858D01*
X104979143Y-65039956D01*
X104954536Y-65022726D01*
X104910912Y-64968149D01*
X104903719Y-64898650D01*
X104935241Y-64836296D01*
X104995471Y-64800882D01*
X105012404Y-64797861D01*
X105047483Y-64794091D01*
X105182331Y-64743796D01*
X105297546Y-64657546D01*
X105383796Y-64542331D01*
X105434091Y-64407483D01*
X105440500Y-64347873D01*
X105440500Y-64315000D01*
X105460185Y-64247961D01*
X105512989Y-64202206D01*
X105564500Y-64191000D01*
X106874387Y-64191000D01*
X106940359Y-64210006D01*
X106965476Y-64225788D01*
X106965478Y-64225789D01*
X107028842Y-64247961D01*
X107135745Y-64285368D01*
X107135750Y-64285369D01*
X107314996Y-64305565D01*
X107315000Y-64305565D01*
X107315004Y-64305565D01*
X107494249Y-64285369D01*
X107494252Y-64285368D01*
X107494255Y-64285368D01*
X107664522Y-64225789D01*
X107817262Y-64129816D01*
X107944816Y-64002262D01*
X108040789Y-63849522D01*
X108100368Y-63679255D01*
X108103623Y-63650368D01*
X108120565Y-63500003D01*
X108120565Y-63499996D01*
X108100369Y-63320750D01*
X108100368Y-63320745D01*
X108040788Y-63150476D01*
X108001582Y-63088080D01*
X107944816Y-62997738D01*
X107817262Y-62870184D01*
X107664523Y-62774211D01*
X107494254Y-62714631D01*
X107494249Y-62714630D01*
X107315004Y-62694435D01*
X107314996Y-62694435D01*
X107135750Y-62714630D01*
X107135745Y-62714631D01*
X106965476Y-62774211D01*
X106940359Y-62789994D01*
X106874387Y-62809000D01*
X106850960Y-62809000D01*
X106783921Y-62789315D01*
X106738166Y-62736511D01*
X106728222Y-62667353D01*
X106745966Y-62619028D01*
X106770788Y-62579523D01*
X106770789Y-62579522D01*
X106830368Y-62409255D01*
X106830369Y-62409249D01*
X106850565Y-62230003D01*
X106850565Y-62229996D01*
X106830369Y-62050750D01*
X106830368Y-62050745D01*
X106785427Y-61922311D01*
X106770789Y-61880478D01*
X106674816Y-61727738D01*
X106547262Y-61600184D01*
X106394522Y-61504211D01*
X106394519Y-61504209D01*
X106270347Y-61460759D01*
X106223620Y-61431399D01*
X106137318Y-61345096D01*
X106103834Y-61283772D01*
X106101000Y-61257415D01*
X106101000Y-60495959D01*
X106120685Y-60428920D01*
X106173489Y-60383165D01*
X106242647Y-60373221D01*
X106290970Y-60390964D01*
X106330476Y-60415788D01*
X106330478Y-60415789D01*
X106500745Y-60475368D01*
X106500750Y-60475369D01*
X106679996Y-60495565D01*
X106680000Y-60495565D01*
X106680004Y-60495565D01*
X106859249Y-60475369D01*
X106859252Y-60475368D01*
X106859255Y-60475368D01*
X107029522Y-60415789D01*
X107182262Y-60319816D01*
X107227319Y-60274759D01*
X107288642Y-60241274D01*
X107358334Y-60246258D01*
X107402681Y-60274759D01*
X107447738Y-60319816D01*
X107600478Y-60415789D01*
X107770742Y-60475367D01*
X107770745Y-60475368D01*
X107770750Y-60475369D01*
X107949996Y-60495565D01*
X107950000Y-60495565D01*
X107950004Y-60495565D01*
X108129249Y-60475369D01*
X108129252Y-60475368D01*
X108129255Y-60475368D01*
X108299522Y-60415789D01*
X108452262Y-60319816D01*
X108579816Y-60192262D01*
X108675789Y-60039522D01*
X108719239Y-59915345D01*
X108748597Y-59868623D01*
X109469903Y-59147319D01*
X109531226Y-59113834D01*
X109557584Y-59111000D01*
X110558060Y-59111000D01*
X110647870Y-59093134D01*
X110691557Y-59084445D01*
X110817311Y-59032356D01*
X110930487Y-58956734D01*
X111026734Y-58860487D01*
X111102356Y-58747311D01*
X111154445Y-58621557D01*
X111163134Y-58577870D01*
X111181000Y-58488060D01*
X111181000Y-57109363D01*
X111200685Y-57042324D01*
X111233877Y-57007788D01*
X111284519Y-56972328D01*
X111361401Y-56918495D01*
X111492319Y-56787577D01*
X111553642Y-56754092D01*
X111623334Y-56759076D01*
G37*
%TD.AperFunction*%
%TA.AperFunction,Conductor*%
G36*
X103261490Y-79704685D02*
G01*
X103282132Y-79721319D01*
X103300858Y-79740045D01*
X103300861Y-79740047D01*
X103487266Y-79870568D01*
X103545865Y-79897893D01*
X103598305Y-79944065D01*
X103617457Y-80011258D01*
X103597242Y-80078139D01*
X103545867Y-80122657D01*
X103487515Y-80149867D01*
X103301179Y-80280342D01*
X103140342Y-80441179D01*
X103009865Y-80627517D01*
X102913734Y-80833673D01*
X102913730Y-80833682D01*
X102861127Y-81029999D01*
X102861128Y-81030000D01*
X103824314Y-81030000D01*
X103819920Y-81034394D01*
X103767259Y-81125606D01*
X103740000Y-81227339D01*
X103740000Y-81332661D01*
X103767259Y-81434394D01*
X103819920Y-81525606D01*
X103824314Y-81530000D01*
X102861128Y-81530000D01*
X102913730Y-81726317D01*
X102913734Y-81726326D01*
X103009865Y-81932482D01*
X103140342Y-82118820D01*
X103301179Y-82279657D01*
X103487518Y-82410134D01*
X103487520Y-82410135D01*
X103545865Y-82437342D01*
X103598305Y-82483514D01*
X103617457Y-82550707D01*
X103597242Y-82617589D01*
X103545867Y-82662105D01*
X103487268Y-82689431D01*
X103487264Y-82689433D01*
X103300858Y-82819954D01*
X103282132Y-82838681D01*
X103220809Y-82872166D01*
X103194451Y-82875000D01*
X100076258Y-82875000D01*
X100009219Y-82855315D01*
X99988577Y-82838681D01*
X99931402Y-82781506D01*
X99931401Y-82781505D01*
X99745405Y-82651269D01*
X99701781Y-82596692D01*
X99694588Y-82527193D01*
X99726110Y-82464839D01*
X99745405Y-82448119D01*
X99931082Y-82318105D01*
X100098105Y-82151082D01*
X100233600Y-81957578D01*
X100333429Y-81743492D01*
X100333432Y-81743486D01*
X100390636Y-81530000D01*
X99493012Y-81530000D01*
X99525925Y-81472993D01*
X99560000Y-81345826D01*
X99560000Y-81214174D01*
X99525925Y-81087007D01*
X99493012Y-81030000D01*
X100390636Y-81030000D01*
X100390635Y-81029999D01*
X100333432Y-80816513D01*
X100333429Y-80816507D01*
X100233600Y-80602422D01*
X100233599Y-80602420D01*
X100098113Y-80408926D01*
X100098108Y-80408920D01*
X99931078Y-80241890D01*
X99745405Y-80111879D01*
X99701780Y-80057302D01*
X99694588Y-79987804D01*
X99726110Y-79925449D01*
X99745406Y-79908730D01*
X99760883Y-79897893D01*
X99931401Y-79778495D01*
X99988577Y-79721319D01*
X100049900Y-79687834D01*
X100076258Y-79685000D01*
X103194451Y-79685000D01*
X103261490Y-79704685D01*
G37*
%TD.AperFunction*%
%TA.AperFunction,Conductor*%
G36*
X115890781Y-77164685D02*
G01*
X115911423Y-77181319D01*
X115968599Y-77238495D01*
X116139115Y-77357892D01*
X116154594Y-77368730D01*
X116198219Y-77423307D01*
X116205413Y-77492805D01*
X116173890Y-77555160D01*
X116154595Y-77571880D01*
X115968922Y-77701890D01*
X115968920Y-77701891D01*
X115801891Y-77868920D01*
X115801886Y-77868926D01*
X115666400Y-78062420D01*
X115666399Y-78062422D01*
X115566570Y-78276507D01*
X115566567Y-78276513D01*
X115509364Y-78489999D01*
X115509364Y-78490000D01*
X116406988Y-78490000D01*
X116374075Y-78547007D01*
X116340000Y-78674174D01*
X116340000Y-78805826D01*
X116374075Y-78932993D01*
X116406988Y-78990000D01*
X115509364Y-78990000D01*
X115566567Y-79203486D01*
X115566570Y-79203492D01*
X115666399Y-79417578D01*
X115801894Y-79611082D01*
X115968917Y-79778105D01*
X116154595Y-79908119D01*
X116198219Y-79962696D01*
X116205412Y-80032195D01*
X116173890Y-80094549D01*
X116154595Y-80111269D01*
X115968598Y-80241505D01*
X115940011Y-80270093D01*
X115911421Y-80298682D01*
X115850101Y-80332166D01*
X115823742Y-80335000D01*
X112705549Y-80335000D01*
X112638510Y-80315315D01*
X112617868Y-80298681D01*
X112599141Y-80279954D01*
X112412734Y-80149432D01*
X112412732Y-80149431D01*
X112355315Y-80122657D01*
X112354132Y-80122105D01*
X112301694Y-80075934D01*
X112282542Y-80008740D01*
X112302758Y-79941859D01*
X112354134Y-79897341D01*
X112412484Y-79870132D01*
X112598820Y-79739657D01*
X112759657Y-79578820D01*
X112890134Y-79392482D01*
X112986265Y-79186326D01*
X112986269Y-79186317D01*
X113038872Y-78990000D01*
X112075686Y-78990000D01*
X112080080Y-78985606D01*
X112132741Y-78894394D01*
X112160000Y-78792661D01*
X112160000Y-78687339D01*
X112132741Y-78585606D01*
X112080080Y-78494394D01*
X112075686Y-78490000D01*
X113038872Y-78490000D01*
X113038872Y-78489999D01*
X112986269Y-78293682D01*
X112986265Y-78293673D01*
X112890134Y-78087517D01*
X112759657Y-77901179D01*
X112598820Y-77740342D01*
X112412482Y-77609865D01*
X112354133Y-77582657D01*
X112301694Y-77536484D01*
X112282542Y-77469291D01*
X112302758Y-77402410D01*
X112354129Y-77357895D01*
X112412734Y-77330568D01*
X112599139Y-77200047D01*
X112599141Y-77200045D01*
X112617868Y-77181319D01*
X112679191Y-77147834D01*
X112705549Y-77145000D01*
X115823742Y-77145000D01*
X115890781Y-77164685D01*
G37*
%TD.AperFunction*%
%TD*%
D18*
X119380000Y-106680000D02*
G75*
G02*
X116840000Y-109220000I-2540000J0D01*
G01*
X116840000Y-50800000D02*
X99060000Y-50800000D01*
X99060000Y-109220000D02*
X116840000Y-109220000D01*
X99060000Y-109220000D02*
G75*
G02*
X96520000Y-106680000I0J2540000D01*
G01*
X119380000Y-53340000D02*
X119380000Y-106680000D01*
X96520000Y-53340000D02*
G75*
G02*
X99060000Y-50800000I2540000J0D01*
G01*
X116840000Y-50800000D02*
G75*
G02*
X119380000Y-53340000I0J-2540000D01*
G01*
X96520000Y-53340000D02*
X96520000Y-106680000D01*
M02*
