%TF.GenerationSoftware,KiCad,Pcbnew,8.0.2*%
%TF.CreationDate,2024-05-09T17:00:38-05:00*%
%TF.ProjectId,atmega328-proto,61746d65-6761-4333-9238-2d70726f746f,A*%
%TF.SameCoordinates,Original*%
%TF.FileFunction,Legend,Top*%
%TF.FilePolarity,Positive*%
%FSLAX46Y46*%
G04 Gerber Fmt 4.6, Leading zero omitted, Abs format (unit mm)*
G04 Created by KiCad (PCBNEW 8.0.2) date 2024-05-09 17:00:38*
%MOMM*%
%LPD*%
G01*
G04 APERTURE LIST*
%ADD10C,0.150000*%
%ADD11C,0.120000*%
%TA.AperFunction,Profile*%
%ADD12C,0.050000*%
%TD*%
G04 APERTURE END LIST*
D10*
X115511905Y-52444819D02*
X115511905Y-51444819D01*
X115511905Y-51444819D02*
X115750000Y-51444819D01*
X115750000Y-51444819D02*
X115892857Y-51492438D01*
X115892857Y-51492438D02*
X115988095Y-51587676D01*
X115988095Y-51587676D02*
X116035714Y-51682914D01*
X116035714Y-51682914D02*
X116083333Y-51873390D01*
X116083333Y-51873390D02*
X116083333Y-52016247D01*
X116083333Y-52016247D02*
X116035714Y-52206723D01*
X116035714Y-52206723D02*
X115988095Y-52301961D01*
X115988095Y-52301961D02*
X115892857Y-52397200D01*
X115892857Y-52397200D02*
X115750000Y-52444819D01*
X115750000Y-52444819D02*
X115511905Y-52444819D01*
X116464286Y-51540057D02*
X116511905Y-51492438D01*
X116511905Y-51492438D02*
X116607143Y-51444819D01*
X116607143Y-51444819D02*
X116845238Y-51444819D01*
X116845238Y-51444819D02*
X116940476Y-51492438D01*
X116940476Y-51492438D02*
X116988095Y-51540057D01*
X116988095Y-51540057D02*
X117035714Y-51635295D01*
X117035714Y-51635295D02*
X117035714Y-51730533D01*
X117035714Y-51730533D02*
X116988095Y-51873390D01*
X116988095Y-51873390D02*
X116416667Y-52444819D01*
X116416667Y-52444819D02*
X117035714Y-52444819D01*
X107188095Y-60624819D02*
X107188095Y-61434342D01*
X107188095Y-61434342D02*
X107235714Y-61529580D01*
X107235714Y-61529580D02*
X107283333Y-61577200D01*
X107283333Y-61577200D02*
X107378571Y-61624819D01*
X107378571Y-61624819D02*
X107569047Y-61624819D01*
X107569047Y-61624819D02*
X107664285Y-61577200D01*
X107664285Y-61577200D02*
X107711904Y-61529580D01*
X107711904Y-61529580D02*
X107759523Y-61434342D01*
X107759523Y-61434342D02*
X107759523Y-60624819D01*
X108759523Y-61624819D02*
X108188095Y-61624819D01*
X108473809Y-61624819D02*
X108473809Y-60624819D01*
X108473809Y-60624819D02*
X108378571Y-60767676D01*
X108378571Y-60767676D02*
X108283333Y-60862914D01*
X108283333Y-60862914D02*
X108188095Y-60910533D01*
X111593333Y-100784819D02*
X111260000Y-100308628D01*
X111021905Y-100784819D02*
X111021905Y-99784819D01*
X111021905Y-99784819D02*
X111402857Y-99784819D01*
X111402857Y-99784819D02*
X111498095Y-99832438D01*
X111498095Y-99832438D02*
X111545714Y-99880057D01*
X111545714Y-99880057D02*
X111593333Y-99975295D01*
X111593333Y-99975295D02*
X111593333Y-100118152D01*
X111593333Y-100118152D02*
X111545714Y-100213390D01*
X111545714Y-100213390D02*
X111498095Y-100261009D01*
X111498095Y-100261009D02*
X111402857Y-100308628D01*
X111402857Y-100308628D02*
X111021905Y-100308628D01*
X112545714Y-100784819D02*
X111974286Y-100784819D01*
X112260000Y-100784819D02*
X112260000Y-99784819D01*
X112260000Y-99784819D02*
X112164762Y-99927676D01*
X112164762Y-99927676D02*
X112069524Y-100022914D01*
X112069524Y-100022914D02*
X111974286Y-100070533D01*
X101269580Y-104306666D02*
X101317200Y-104354285D01*
X101317200Y-104354285D02*
X101364819Y-104497142D01*
X101364819Y-104497142D02*
X101364819Y-104592380D01*
X101364819Y-104592380D02*
X101317200Y-104735237D01*
X101317200Y-104735237D02*
X101221961Y-104830475D01*
X101221961Y-104830475D02*
X101126723Y-104878094D01*
X101126723Y-104878094D02*
X100936247Y-104925713D01*
X100936247Y-104925713D02*
X100793390Y-104925713D01*
X100793390Y-104925713D02*
X100602914Y-104878094D01*
X100602914Y-104878094D02*
X100507676Y-104830475D01*
X100507676Y-104830475D02*
X100412438Y-104735237D01*
X100412438Y-104735237D02*
X100364819Y-104592380D01*
X100364819Y-104592380D02*
X100364819Y-104497142D01*
X100364819Y-104497142D02*
X100412438Y-104354285D01*
X100412438Y-104354285D02*
X100460057Y-104306666D01*
X101364819Y-103354285D02*
X101364819Y-103925713D01*
X101364819Y-103639999D02*
X100364819Y-103639999D01*
X100364819Y-103639999D02*
X100507676Y-103735237D01*
X100507676Y-103735237D02*
X100602914Y-103830475D01*
X100602914Y-103830475D02*
X100650533Y-103925713D01*
X115349580Y-104306666D02*
X115397200Y-104354285D01*
X115397200Y-104354285D02*
X115444819Y-104497142D01*
X115444819Y-104497142D02*
X115444819Y-104592380D01*
X115444819Y-104592380D02*
X115397200Y-104735237D01*
X115397200Y-104735237D02*
X115301961Y-104830475D01*
X115301961Y-104830475D02*
X115206723Y-104878094D01*
X115206723Y-104878094D02*
X115016247Y-104925713D01*
X115016247Y-104925713D02*
X114873390Y-104925713D01*
X114873390Y-104925713D02*
X114682914Y-104878094D01*
X114682914Y-104878094D02*
X114587676Y-104830475D01*
X114587676Y-104830475D02*
X114492438Y-104735237D01*
X114492438Y-104735237D02*
X114444819Y-104592380D01*
X114444819Y-104592380D02*
X114444819Y-104497142D01*
X114444819Y-104497142D02*
X114492438Y-104354285D01*
X114492438Y-104354285D02*
X114540057Y-104306666D01*
X114540057Y-103925713D02*
X114492438Y-103878094D01*
X114492438Y-103878094D02*
X114444819Y-103782856D01*
X114444819Y-103782856D02*
X114444819Y-103544761D01*
X114444819Y-103544761D02*
X114492438Y-103449523D01*
X114492438Y-103449523D02*
X114540057Y-103401904D01*
X114540057Y-103401904D02*
X114635295Y-103354285D01*
X114635295Y-103354285D02*
X114730533Y-103354285D01*
X114730533Y-103354285D02*
X114873390Y-103401904D01*
X114873390Y-103401904D02*
X115444819Y-103973332D01*
X115444819Y-103973332D02*
X115444819Y-103354285D01*
X99001905Y-52444819D02*
X99001905Y-51444819D01*
X99001905Y-51444819D02*
X99240000Y-51444819D01*
X99240000Y-51444819D02*
X99382857Y-51492438D01*
X99382857Y-51492438D02*
X99478095Y-51587676D01*
X99478095Y-51587676D02*
X99525714Y-51682914D01*
X99525714Y-51682914D02*
X99573333Y-51873390D01*
X99573333Y-51873390D02*
X99573333Y-52016247D01*
X99573333Y-52016247D02*
X99525714Y-52206723D01*
X99525714Y-52206723D02*
X99478095Y-52301961D01*
X99478095Y-52301961D02*
X99382857Y-52397200D01*
X99382857Y-52397200D02*
X99240000Y-52444819D01*
X99240000Y-52444819D02*
X99001905Y-52444819D01*
X100525714Y-52444819D02*
X99954286Y-52444819D01*
X100240000Y-52444819D02*
X100240000Y-51444819D01*
X100240000Y-51444819D02*
X100144762Y-51587676D01*
X100144762Y-51587676D02*
X100049524Y-51682914D01*
X100049524Y-51682914D02*
X99954286Y-51730533D01*
X98726666Y-60624819D02*
X98726666Y-61339104D01*
X98726666Y-61339104D02*
X98679047Y-61481961D01*
X98679047Y-61481961D02*
X98583809Y-61577200D01*
X98583809Y-61577200D02*
X98440952Y-61624819D01*
X98440952Y-61624819D02*
X98345714Y-61624819D01*
X99726666Y-61624819D02*
X99155238Y-61624819D01*
X99440952Y-61624819D02*
X99440952Y-60624819D01*
X99440952Y-60624819D02*
X99345714Y-60767676D01*
X99345714Y-60767676D02*
X99250476Y-60862914D01*
X99250476Y-60862914D02*
X99155238Y-60910533D01*
X116038333Y-55784819D02*
X115705000Y-55308628D01*
X115466905Y-55784819D02*
X115466905Y-54784819D01*
X115466905Y-54784819D02*
X115847857Y-54784819D01*
X115847857Y-54784819D02*
X115943095Y-54832438D01*
X115943095Y-54832438D02*
X115990714Y-54880057D01*
X115990714Y-54880057D02*
X116038333Y-54975295D01*
X116038333Y-54975295D02*
X116038333Y-55118152D01*
X116038333Y-55118152D02*
X115990714Y-55213390D01*
X115990714Y-55213390D02*
X115943095Y-55261009D01*
X115943095Y-55261009D02*
X115847857Y-55308628D01*
X115847857Y-55308628D02*
X115466905Y-55308628D01*
X116371667Y-54784819D02*
X116990714Y-54784819D01*
X116990714Y-54784819D02*
X116657381Y-55165771D01*
X116657381Y-55165771D02*
X116800238Y-55165771D01*
X116800238Y-55165771D02*
X116895476Y-55213390D01*
X116895476Y-55213390D02*
X116943095Y-55261009D01*
X116943095Y-55261009D02*
X116990714Y-55356247D01*
X116990714Y-55356247D02*
X116990714Y-55594342D01*
X116990714Y-55594342D02*
X116943095Y-55689580D01*
X116943095Y-55689580D02*
X116895476Y-55737200D01*
X116895476Y-55737200D02*
X116800238Y-55784819D01*
X116800238Y-55784819D02*
X116514524Y-55784819D01*
X116514524Y-55784819D02*
X116419286Y-55737200D01*
X116419286Y-55737200D02*
X116371667Y-55689580D01*
X102534819Y-54943333D02*
X103249104Y-54943333D01*
X103249104Y-54943333D02*
X103391961Y-54990952D01*
X103391961Y-54990952D02*
X103487200Y-55086190D01*
X103487200Y-55086190D02*
X103534819Y-55229047D01*
X103534819Y-55229047D02*
X103534819Y-55324285D01*
X102868152Y-54038571D02*
X103534819Y-54038571D01*
X102487200Y-54276666D02*
X103201485Y-54514761D01*
X103201485Y-54514761D02*
X103201485Y-53895714D01*
X116506666Y-98304819D02*
X116506666Y-99019104D01*
X116506666Y-99019104D02*
X116459047Y-99161961D01*
X116459047Y-99161961D02*
X116363809Y-99257200D01*
X116363809Y-99257200D02*
X116220952Y-99304819D01*
X116220952Y-99304819D02*
X116125714Y-99304819D01*
X116935238Y-98400057D02*
X116982857Y-98352438D01*
X116982857Y-98352438D02*
X117078095Y-98304819D01*
X117078095Y-98304819D02*
X117316190Y-98304819D01*
X117316190Y-98304819D02*
X117411428Y-98352438D01*
X117411428Y-98352438D02*
X117459047Y-98400057D01*
X117459047Y-98400057D02*
X117506666Y-98495295D01*
X117506666Y-98495295D02*
X117506666Y-98590533D01*
X117506666Y-98590533D02*
X117459047Y-98733390D01*
X117459047Y-98733390D02*
X116887619Y-99304819D01*
X116887619Y-99304819D02*
X117506666Y-99304819D01*
X107473809Y-105388628D02*
X107473809Y-105864819D01*
X107140476Y-104864819D02*
X107473809Y-105388628D01*
X107473809Y-105388628D02*
X107807142Y-104864819D01*
X108664285Y-105864819D02*
X108092857Y-105864819D01*
X108378571Y-105864819D02*
X108378571Y-104864819D01*
X108378571Y-104864819D02*
X108283333Y-105007676D01*
X108283333Y-105007676D02*
X108188095Y-105102914D01*
X108188095Y-105102914D02*
X108092857Y-105150533D01*
X99528333Y-55784819D02*
X99195000Y-55308628D01*
X98956905Y-55784819D02*
X98956905Y-54784819D01*
X98956905Y-54784819D02*
X99337857Y-54784819D01*
X99337857Y-54784819D02*
X99433095Y-54832438D01*
X99433095Y-54832438D02*
X99480714Y-54880057D01*
X99480714Y-54880057D02*
X99528333Y-54975295D01*
X99528333Y-54975295D02*
X99528333Y-55118152D01*
X99528333Y-55118152D02*
X99480714Y-55213390D01*
X99480714Y-55213390D02*
X99433095Y-55261009D01*
X99433095Y-55261009D02*
X99337857Y-55308628D01*
X99337857Y-55308628D02*
X98956905Y-55308628D01*
X99909286Y-54880057D02*
X99956905Y-54832438D01*
X99956905Y-54832438D02*
X100052143Y-54784819D01*
X100052143Y-54784819D02*
X100290238Y-54784819D01*
X100290238Y-54784819D02*
X100385476Y-54832438D01*
X100385476Y-54832438D02*
X100433095Y-54880057D01*
X100433095Y-54880057D02*
X100480714Y-54975295D01*
X100480714Y-54975295D02*
X100480714Y-55070533D01*
X100480714Y-55070533D02*
X100433095Y-55213390D01*
X100433095Y-55213390D02*
X99861667Y-55784819D01*
X99861667Y-55784819D02*
X100480714Y-55784819D01*
D11*
%TO.C,D2*%
X113790000Y-52675000D02*
X113790000Y-54945000D01*
X113790000Y-54945000D02*
X117850000Y-54945000D01*
X117850000Y-52675000D02*
X113790000Y-52675000D01*
%TO.C,U1*%
X105300000Y-62170000D02*
X105300000Y-97850000D01*
X105300000Y-97850000D02*
X110600000Y-97850000D01*
X106950000Y-62170000D02*
X105300000Y-62170000D01*
X110600000Y-62170000D02*
X108950000Y-62170000D01*
X110600000Y-97850000D02*
X110600000Y-62170000D01*
X108950000Y-62170000D02*
G75*
G02*
X106950000Y-62170000I-1000000J0D01*
G01*
%TO.C,R1*%
X108869564Y-99420000D02*
X107415436Y-99420000D01*
X108869564Y-101240000D02*
X107415436Y-101240000D01*
%TO.C,C1*%
X98150000Y-103428748D02*
X98150000Y-104851252D01*
X99970000Y-103428748D02*
X99970000Y-104851252D01*
%TO.C,C2*%
X115930000Y-104851252D02*
X115930000Y-103428748D01*
X117750000Y-104851252D02*
X117750000Y-103428748D01*
%TO.C,D1*%
X97280000Y-52675000D02*
X97280000Y-54945000D01*
X97280000Y-54945000D02*
X101340000Y-54945000D01*
X101340000Y-52675000D02*
X97280000Y-52675000D01*
%TO.C,J1*%
X97730000Y-62170000D02*
X99060000Y-62170000D01*
X97730000Y-63500000D02*
X97730000Y-62170000D01*
X97730000Y-64770000D02*
X97730000Y-97850000D01*
X97730000Y-64770000D02*
X100390000Y-64770000D01*
X97730000Y-97850000D02*
X100390000Y-97850000D01*
X100390000Y-64770000D02*
X100390000Y-97850000D01*
%TO.C,R3*%
X115477936Y-56240000D02*
X116932064Y-56240000D01*
X115477936Y-58060000D02*
X116932064Y-58060000D01*
%TO.C,J4*%
X104080000Y-52010000D02*
X111820000Y-52010000D01*
X104080000Y-54610000D02*
X104080000Y-52010000D01*
X104080000Y-57210000D02*
X104080000Y-55880000D01*
X105410000Y-57210000D02*
X104080000Y-57210000D01*
X106680000Y-54610000D02*
X104080000Y-54610000D01*
X106680000Y-57210000D02*
X106680000Y-54610000D01*
X106680000Y-57210000D02*
X111820000Y-57210000D01*
X111820000Y-57210000D02*
X111820000Y-52010000D01*
%TO.C,J2*%
X115510000Y-95250000D02*
X115510000Y-62170000D01*
X118170000Y-62170000D02*
X115510000Y-62170000D01*
X118170000Y-95250000D02*
X115510000Y-95250000D01*
X118170000Y-95250000D02*
X118170000Y-62170000D01*
X118170000Y-96520000D02*
X118170000Y-97850000D01*
X118170000Y-97850000D02*
X116840000Y-97850000D01*
%TO.C,Y1*%
X104815000Y-102885000D02*
X111065000Y-102885000D01*
X104815000Y-107935000D02*
X111065000Y-107935000D01*
X104815000Y-107935000D02*
G75*
G02*
X104815000Y-102885000I0J2525000D01*
G01*
X111065000Y-102885000D02*
G75*
G02*
X111065000Y-107935000I0J-2525000D01*
G01*
%TO.C,R2*%
X98967936Y-56240000D02*
X100422064Y-56240000D01*
X98967936Y-58060000D02*
X100422064Y-58060000D01*
%TD*%
D12*
X119380000Y-106680000D02*
G75*
G02*
X116840000Y-109220000I-2540000J0D01*
G01*
X116840000Y-50800000D02*
X99060000Y-50800000D01*
X99060000Y-109220000D02*
X116840000Y-109220000D01*
X99060000Y-109220000D02*
G75*
G02*
X96520000Y-106680000I0J2540000D01*
G01*
X119380000Y-53340000D02*
X119380000Y-106680000D01*
X96520000Y-53340000D02*
G75*
G02*
X99060000Y-50800000I2540000J0D01*
G01*
X116840000Y-50800000D02*
G75*
G02*
X119380000Y-53340000I0J-2540000D01*
G01*
X96520000Y-53340000D02*
X96520000Y-106680000D01*
M02*
