%TF.GenerationSoftware,KiCad,Pcbnew,8.0.2*%
%TF.CreationDate,2024-05-09T17:00:38-05:00*%
%TF.ProjectId,atmega328-proto,61746d65-6761-4333-9238-2d70726f746f,A*%
%TF.SameCoordinates,Original*%
%TF.FileFunction,Soldermask,Bot*%
%TF.FilePolarity,Negative*%
%FSLAX46Y46*%
G04 Gerber Fmt 4.6, Leading zero omitted, Abs format (unit mm)*
G04 Created by KiCad (PCBNEW 8.0.2) date 2024-05-09 17:00:38*
%MOMM*%
%LPD*%
G01*
G04 APERTURE LIST*
%ADD10R,1.600000X1.600000*%
%ADD11O,1.600000X1.600000*%
%ADD12R,1.700000X1.700000*%
%ADD13O,1.700000X1.700000*%
%ADD14C,1.500000*%
%TA.AperFunction,Profile*%
%ADD15C,0.050000*%
%TD*%
G04 APERTURE END LIST*
D10*
%TO.C,U1*%
X104140000Y-63500000D03*
D11*
X104140000Y-66040000D03*
X104140000Y-68580000D03*
X104140000Y-71120000D03*
X104140000Y-73660000D03*
X104140000Y-76200000D03*
X104140000Y-78740000D03*
X104140000Y-81280000D03*
X104140000Y-83820000D03*
X104140000Y-86360000D03*
X104140000Y-88900000D03*
X104140000Y-91440000D03*
X104140000Y-93980000D03*
X104140000Y-96520000D03*
X111760000Y-96520000D03*
X111760000Y-93980000D03*
X111760000Y-91440000D03*
X111760000Y-88900000D03*
X111760000Y-86360000D03*
X111760000Y-83820000D03*
X111760000Y-81280000D03*
X111760000Y-78740000D03*
X111760000Y-76200000D03*
X111760000Y-73660000D03*
X111760000Y-71120000D03*
X111760000Y-68580000D03*
X111760000Y-66040000D03*
X111760000Y-63500000D03*
%TD*%
D12*
%TO.C,J1*%
X99060000Y-63500000D03*
D13*
X99060000Y-66040000D03*
X99060000Y-68580000D03*
X99060000Y-71120000D03*
X99060000Y-73660000D03*
X99060000Y-76200000D03*
X99060000Y-78740000D03*
X99060000Y-81280000D03*
X99060000Y-83820000D03*
X99060000Y-86360000D03*
X99060000Y-88900000D03*
X99060000Y-91440000D03*
X99060000Y-93980000D03*
X99060000Y-96520000D03*
%TD*%
D12*
%TO.C,J4*%
X105410000Y-55880000D03*
D13*
X105410000Y-53340000D03*
X107950000Y-55880000D03*
X107950000Y-53340000D03*
X110490000Y-55880000D03*
X110490000Y-53340000D03*
%TD*%
D12*
%TO.C,J2*%
X116840000Y-96520000D03*
D13*
X116840000Y-93980000D03*
X116840000Y-91440000D03*
X116840000Y-88900000D03*
X116840000Y-86360000D03*
X116840000Y-83820000D03*
X116840000Y-81280000D03*
X116840000Y-78740000D03*
X116840000Y-76200000D03*
X116840000Y-73660000D03*
X116840000Y-71120000D03*
X116840000Y-68580000D03*
X116840000Y-66040000D03*
X116840000Y-63500000D03*
%TD*%
D14*
%TO.C,Y1*%
X105500000Y-105410000D03*
X110380000Y-105410000D03*
%TD*%
D15*
X119380000Y-106680000D02*
G75*
G02*
X116840000Y-109220000I-2540000J0D01*
G01*
X116840000Y-50800000D02*
X99060000Y-50800000D01*
X99060000Y-109220000D02*
X116840000Y-109220000D01*
X99060000Y-109220000D02*
G75*
G02*
X96520000Y-106680000I0J2540000D01*
G01*
X119380000Y-53340000D02*
X119380000Y-106680000D01*
X96520000Y-53340000D02*
G75*
G02*
X99060000Y-50800000I2540000J0D01*
G01*
X116840000Y-50800000D02*
G75*
G02*
X119380000Y-53340000I0J-2540000D01*
G01*
X96520000Y-53340000D02*
X96520000Y-106680000D01*
M02*
