%TF.GenerationSoftware,KiCad,Pcbnew,8.0.2*%
%TF.CreationDate,2024-05-09T17:00:38-05:00*%
%TF.ProjectId,atmega328-proto,61746d65-6761-4333-9238-2d70726f746f,A*%
%TF.SameCoordinates,Original*%
%TF.FileFunction,Soldermask,Top*%
%TF.FilePolarity,Negative*%
%FSLAX46Y46*%
G04 Gerber Fmt 4.6, Leading zero omitted, Abs format (unit mm)*
G04 Created by KiCad (PCBNEW 8.0.2) date 2024-05-09 17:00:38*
%MOMM*%
%LPD*%
G01*
G04 APERTURE LIST*
G04 Aperture macros list*
%AMRoundRect*
0 Rectangle with rounded corners*
0 $1 Rounding radius*
0 $2 $3 $4 $5 $6 $7 $8 $9 X,Y pos of 4 corners*
0 Add a 4 corners polygon primitive as box body*
4,1,4,$2,$3,$4,$5,$6,$7,$8,$9,$2,$3,0*
0 Add four circle primitives for the rounded corners*
1,1,$1+$1,$2,$3*
1,1,$1+$1,$4,$5*
1,1,$1+$1,$6,$7*
1,1,$1+$1,$8,$9*
0 Add four rect primitives between the rounded corners*
20,1,$1+$1,$2,$3,$4,$5,0*
20,1,$1+$1,$4,$5,$6,$7,0*
20,1,$1+$1,$6,$7,$8,$9,0*
20,1,$1+$1,$8,$9,$2,$3,0*%
G04 Aperture macros list end*
%ADD10RoundRect,0.250001X-0.462499X-0.624999X0.462499X-0.624999X0.462499X0.624999X-0.462499X0.624999X0*%
%ADD11R,1.600000X1.600000*%
%ADD12O,1.600000X1.600000*%
%ADD13RoundRect,0.250000X0.312500X0.625000X-0.312500X0.625000X-0.312500X-0.625000X0.312500X-0.625000X0*%
%ADD14RoundRect,0.250000X-0.650000X0.412500X-0.650000X-0.412500X0.650000X-0.412500X0.650000X0.412500X0*%
%ADD15RoundRect,0.250000X0.650000X-0.412500X0.650000X0.412500X-0.650000X0.412500X-0.650000X-0.412500X0*%
%ADD16R,1.700000X1.700000*%
%ADD17O,1.700000X1.700000*%
%ADD18RoundRect,0.250000X-0.400000X-0.625000X0.400000X-0.625000X0.400000X0.625000X-0.400000X0.625000X0*%
%ADD19C,1.500000*%
%TA.AperFunction,Profile*%
%ADD20C,0.050000*%
%TD*%
G04 APERTURE END LIST*
D10*
%TO.C,D2*%
X114762500Y-53810000D03*
X117737500Y-53810000D03*
%TD*%
D11*
%TO.C,U1*%
X104140000Y-63500000D03*
D12*
X104140000Y-66040000D03*
X104140000Y-68580000D03*
X104140000Y-71120000D03*
X104140000Y-73660000D03*
X104140000Y-76200000D03*
X104140000Y-78740000D03*
X104140000Y-81280000D03*
X104140000Y-83820000D03*
X104140000Y-86360000D03*
X104140000Y-88900000D03*
X104140000Y-91440000D03*
X104140000Y-93980000D03*
X104140000Y-96520000D03*
X111760000Y-96520000D03*
X111760000Y-93980000D03*
X111760000Y-91440000D03*
X111760000Y-88900000D03*
X111760000Y-86360000D03*
X111760000Y-83820000D03*
X111760000Y-81280000D03*
X111760000Y-78740000D03*
X111760000Y-76200000D03*
X111760000Y-73660000D03*
X111760000Y-71120000D03*
X111760000Y-68580000D03*
X111760000Y-66040000D03*
X111760000Y-63500000D03*
%TD*%
D13*
%TO.C,R1*%
X109605000Y-100330000D03*
X106680000Y-100330000D03*
%TD*%
D14*
%TO.C,C1*%
X99060000Y-102577500D03*
X99060000Y-105702500D03*
%TD*%
D15*
%TO.C,C2*%
X116840000Y-105702500D03*
X116840000Y-102577500D03*
%TD*%
D10*
%TO.C,D1*%
X98252500Y-53810000D03*
X101227500Y-53810000D03*
%TD*%
D16*
%TO.C,J1*%
X99060000Y-63500000D03*
D17*
X99060000Y-66040000D03*
X99060000Y-68580000D03*
X99060000Y-71120000D03*
X99060000Y-73660000D03*
X99060000Y-76200000D03*
X99060000Y-78740000D03*
X99060000Y-81280000D03*
X99060000Y-83820000D03*
X99060000Y-86360000D03*
X99060000Y-88900000D03*
X99060000Y-91440000D03*
X99060000Y-93980000D03*
X99060000Y-96520000D03*
%TD*%
D18*
%TO.C,R3*%
X114655000Y-57150000D03*
X117755000Y-57150000D03*
%TD*%
D16*
%TO.C,J4*%
X105410000Y-55880000D03*
D17*
X105410000Y-53340000D03*
X107950000Y-55880000D03*
X107950000Y-53340000D03*
X110490000Y-55880000D03*
X110490000Y-53340000D03*
%TD*%
D16*
%TO.C,J2*%
X116840000Y-96520000D03*
D17*
X116840000Y-93980000D03*
X116840000Y-91440000D03*
X116840000Y-88900000D03*
X116840000Y-86360000D03*
X116840000Y-83820000D03*
X116840000Y-81280000D03*
X116840000Y-78740000D03*
X116840000Y-76200000D03*
X116840000Y-73660000D03*
X116840000Y-71120000D03*
X116840000Y-68580000D03*
X116840000Y-66040000D03*
X116840000Y-63500000D03*
%TD*%
D19*
%TO.C,Y1*%
X105500000Y-105410000D03*
X110380000Y-105410000D03*
%TD*%
D18*
%TO.C,R2*%
X98145000Y-57150000D03*
X101245000Y-57150000D03*
%TD*%
D20*
X119380000Y-106680000D02*
G75*
G02*
X116840000Y-109220000I-2540000J0D01*
G01*
X116840000Y-50800000D02*
X99060000Y-50800000D01*
X99060000Y-109220000D02*
X116840000Y-109220000D01*
X99060000Y-109220000D02*
G75*
G02*
X96520000Y-106680000I0J2540000D01*
G01*
X119380000Y-53340000D02*
X119380000Y-106680000D01*
X96520000Y-53340000D02*
G75*
G02*
X99060000Y-50800000I2540000J0D01*
G01*
X116840000Y-50800000D02*
G75*
G02*
X119380000Y-53340000I0J-2540000D01*
G01*
X96520000Y-53340000D02*
X96520000Y-106680000D01*
M02*
